<?xml version="1.0" standalone="no"?>
<!DOCTYPE svg PUBLIC "-//W3C//DTD SVG 20010904//EN"
 "http://www.w3.org/TR/2001/REC-SVG-20010904/DTD/svg10.dtd">
<svg version="1.0" xmlns="http://www.w3.org/2000/svg"
 width="1294.000000pt" height="1294.000000pt" viewBox="0 0 1294.000000 1294.000000"
 preserveAspectRatio="xMidYMid meet">
<metadata>
Created by potrace 1.14, written by Peter Selinger 2001-2017
</metadata>
<g transform="translate(0.000000,1294.000000) scale(0.100000,-0.100000)"
fill="#000000" stroke="none">
<path d="M6255 10410 c3 -18 1 -21 -15 -17 -13 3 -18 1 -13 -6 4 -7 0 -8 -12
-3 -14 5 -15 4 -7 -7 8 -10 7 -13 -8 -14 -14 -1 -17 3 -13 15 4 13 2 12 -10
-3 -8 -11 -13 -23 -11 -27 7 -11 -4 -10 -25 1 -13 7 -18 6 -18 -4 0 -8 5 -11
10 -8 6 3 7 1 3 -5 -5 -9 -13 -9 -26 -2 -27 15 -37 12 -15 -4 18 -13 17 -13
-8 -13 -16 0 -24 4 -20 10 3 6 1 7 -6 3 -9 -6 -9 -11 -1 -21 9 -11 7 -14 -12
-13 -13 1 -28 5 -35 10 -7 6 -14 4 -19 -3 -4 -7 -3 -9 3 -6 6 4 16 0 22 -7 10
-12 9 -14 -5 -12 -21 3 -53 -25 -45 -39 2 -5 -3 -4 -13 4 -15 13 -18 12 -23
-8 -3 -13 -11 -20 -19 -17 -8 3 -11 -2 -9 -14 2 -11 -1 -23 -7 -26 -7 -4 -8
-2 -4 4 10 16 -2 15 -19 -2 -8 -7 -11 -17 -7 -22 4 -5 0 -3 -9 3 -12 10 -20 7
-41 -17 -24 -28 -25 -35 -5 -31 5 1 6 -3 2 -9 -3 -6 -10 -8 -15 -5 -10 6 -21
-20 -12 -31 4 -5 3 -6 -2 -2 -12 10 -37 -2 -29 -15 3 -6 1 -7 -6 -3 -12 8 -93
-72 -86 -85 3 -4 -6 -6 -20 -4 -14 1 -25 -2 -25 -8 0 -5 -8 -3 -17 4 -16 12
-17 12 -6 -2 7 -9 10 -19 6 -23 -4 -4 0 -4 10 0 9 3 17 2 17 -3 0 -5 -11 -10
-26 -11 -17 -1 -23 2 -18 10 4 7 3 8 -4 4 -6 -4 -8 -14 -5 -23 3 -9 0 -21 -8
-27 -20 -16 -41 -55 -34 -65 3 -5 -2 -12 -11 -15 -9 -4 -14 -13 -10 -22 4 -10
2 -13 -6 -8 -8 5 -9 2 -5 -10 4 -9 3 -15 -2 -11 -5 3 -12 -1 -15 -7 -3 -7 -3
-1 -1 15 2 17 0 25 -6 21 -6 -3 -8 -9 -5 -12 4 -3 -6 -14 -21 -25 -16 -10 -20
-17 -10 -13 9 3 17 1 17 -4 0 -9 -15 -14 -33 -11 -5 1 -6 -3 -2 -9 3 -5 1 -10
-5 -10 -6 0 -8 -4 -5 -10 3 -5 1 -10 -6 -10 -8 0 -8 -4 1 -16 8 -8 9 -14 4
-13 -21 4 -26 -2 -13 -18 10 -14 8 -13 -10 2 l-24 20 13 -25 c13 -24 12 -24
-5 -10 -17 14 -18 14 -6 -8 7 -13 10 -28 7 -35 -2 -7 -5 -5 -5 5 -1 9 -6 20
-11 23 -6 4 -10 3 -9 -2 5 -29 -2 -53 -13 -47 -9 5 -8 2 1 -9 12 -16 12 -17
-5 -10 -16 6 -17 5 -6 -9 10 -13 10 -18 1 -24 -8 -5 -9 -3 -4 6 6 9 4 11 -4 6
-9 -6 -8 -12 4 -26 12 -14 13 -20 4 -26 -7 -4 -10 -3 -6 3 4 6 0 13 -8 16 -11
5 -12 1 -5 -18 8 -20 6 -25 -7 -25 -15 0 -14 -2 3 -16 10 -8 13 -13 7 -9 -7 3
-13 1 -13 -5 0 -6 -6 -8 -12 -4 -7 4 -10 4 -6 -1 4 -4 2 -15 -5 -23 -8 -11 -8
-14 0 -9 6 4 15 2 19 -4 4 -8 3 -9 -5 -5 -17 11 -27 -24 -10 -36 11 -8 11 -9
-3 -5 -23 8 -29 -2 -16 -27 11 -20 10 -20 -7 -6 -12 10 -16 10 -11 2 4 -7 2
-20 -6 -29 -9 -12 -9 -15 0 -9 14 8 12 -19 -2 -43 -7 -11 -6 -12 5 -5 10 6 9
1 -3 -18 -15 -23 -15 -27 -1 -48 11 -16 12 -21 3 -15 -10 6 -12 4 -7 -8 7 -20
-8 -23 -17 -4 -3 6 -4 -1 -1 -18 2 -16 2 -24 -1 -17 -3 6 -10 10 -15 6 -5 -3
-9 3 -9 13 0 14 -2 15 -9 4 -6 -9 -11 -10 -15 -2 -4 6 -12 9 -17 6 -5 -3 -6 2
-2 11 4 11 2 15 -4 11 -6 -4 -16 0 -23 8 -11 13 -10 14 4 9 9 -3 16 -2 16 3 0
5 -14 10 -32 11 -38 3 -40 5 -42 34 -1 16 -7 23 -21 23 -14 0 -20 6 -19 21 0
15 -6 21 -20 20 -12 -1 -21 -6 -21 -13 0 -6 -3 -15 -7 -19 -12 -11 -9 -26 3
-19 6 4 9 0 7 -11 -2 -13 3 -19 16 -19 22 0 33 -20 17 -30 -6 -3 -9 0 -8 7 2
7 2 10 0 5 -3 -4 -9 -5 -14 -1 -5 3 -9 1 -9 -4 0 -6 7 -13 16 -16 9 -3 14 -12
11 -20 -3 -8 4 -24 15 -36 16 -17 22 -19 29 -8 13 19 11 0 -2 -24 -8 -15 -8
-19 0 -14 10 7 16 -6 12 -27 -1 -5 3 -6 9 -2 6 3 7 11 4 17 -4 6 -2 8 4 4 6
-3 9 -15 7 -26 -3 -18 6 -25 28 -21 5 1 6 -3 2 -8 -3 -6 -11 -9 -18 -7 -7 1
-9 1 -4 -1 4 -3 4 -9 1 -15 -4 -5 4 -4 17 2 l24 13 -20 -22 c-14 -16 -15 -22
-5 -19 8 2 18 8 22 13 5 6 8 5 8 -3 0 -7 -10 -17 -22 -22 -21 -8 -22 -9 -3
-11 11 -1 25 -1 30 1 6 1 4 -4 -2 -11 -16 -16 -17 -29 -2 -29 5 0 7 5 4 10 -3
6 -1 10 5 10 7 0 10 -6 7 -14 -3 -7 0 -19 6 -25 6 -6 7 -11 2 -11 -6 0 -3 -5
5 -11 12 -8 9 -9 -10 -5 -14 3 -20 3 -13 0 7 -3 11 -11 9 -17 -1 -7 -1 -9 1
-4 8 14 19 7 20 -13 1 -12 -3 -18 -8 -14 -6 3 -5 -3 3 -15 7 -12 17 -21 22
-21 4 0 3 6 -3 13 -8 10 -7 14 3 14 8 0 12 -7 11 -16 -2 -9 -4 -20 -4 -24 -1
-5 -5 -6 -9 -3 -5 3 -9 -1 -9 -9 0 -8 4 -12 9 -9 4 3 8 -5 8 -16 0 -15 5 -20
14 -17 11 4 13 1 9 -10 -5 -12 -3 -14 7 -8 9 5 11 4 6 -4 -6 -9 -11 -9 -24 1
-13 12 -14 10 -4 -9 7 -12 17 -25 22 -28 13 -8 13 -25 0 -25 -6 0 -9 5 -8 11
2 6 -4 14 -12 16 -13 4 -13 3 0 -6 8 -6 11 -11 7 -11 -4 0 -3 -10 4 -21 7 -13
7 -19 1 -15 -6 3 -13 2 -16 -3 -4 -5 -2 -12 4 -16 6 -4 7 -12 3 -18 -12 -19
-12 -36 -2 -43 6 -3 5 -12 -3 -22 -10 -12 -10 -14 0 -8 8 5 12 -1 12 -19 0
-17 4 -24 12 -19 7 4 8 3 4 -5 -4 -6 -11 -9 -16 -6 -20 13 -18 -15 2 -30 l23
-17 -23 5 c-18 4 -21 3 -12 -8 8 -10 7 -14 -2 -18 -10 -4 -10 -6 0 -6 6 -1 12
-8 12 -16 0 -7 8 -19 18 -25 14 -8 12 -9 -10 -4 -18 4 -28 2 -28 -6 0 -6 4 -9
9 -6 13 9 31 -18 22 -33 -6 -9 -11 -10 -15 -2 -4 6 -2 11 5 11 7 0 10 3 6 6
-10 10 -28 -7 -20 -19 12 -20 12 -41 0 -56 -9 -11 -9 -13 0 -8 8 5 11 0 10
-13 -1 -11 -6 -20 -12 -20 -5 0 -3 -5 5 -10 8 -5 11 -10 7 -10 -4 0 -3 -10 4
-21 7 -13 7 -19 1 -15 -6 3 -13 2 -16 -3 -4 -5 -2 -12 4 -16 6 -4 7 -12 3 -18
-11 -18 -12 -36 -2 -43 5 -3 6 -11 2 -17 -12 -19 -12 -36 -2 -43 6 -4 6 -11
-1 -19 -8 -10 -5 -17 12 -29 19 -14 20 -16 5 -16 -10 0 -16 -4 -13 -9 4 -5 0
-12 -6 -14 -10 -4 -9 -6 1 -6 10 -1 11 -4 2 -14 -8 -10 -7 -14 3 -14 8 0 13 8
11 18 -2 10 0 21 4 23 17 11 4 -44 -13 -57 -17 -13 -17 -14 0 -28 10 -7 15 -9
11 -2 -4 6 -4 14 1 17 4 2 8 -8 7 -24 0 -26 -2 -27 -16 -14 -14 12 -16 12 -16
-1 0 -8 4 -12 9 -9 4 3 8 -9 8 -25 0 -17 -5 -31 -10 -31 -6 0 -5 -6 2 -14 7
-7 17 -13 23 -11 5 1 7 0 3 -2 -5 -3 -3 -13 2 -24 13 -23 7 -24 -14 -3 -9 8
-16 11 -16 5 0 -5 7 -16 15 -25 9 -9 11 -17 5 -21 -5 -3 -10 -11 -10 -17 0 -6
6 -6 15 2 9 7 18 10 22 6 3 -3 1 -6 -6 -6 -9 0 -11 -8 -8 -21 4 -15 2 -19 -9
-15 -8 3 -14 1 -14 -4 0 -6 8 -10 18 -10 9 0 24 -5 32 -11 12 -8 10 -9 -7 -4
-17 5 -23 2 -23 -8 0 -9 -6 -18 -12 -20 -10 -4 -10 -6 0 -6 6 -1 12 -8 12 -17
0 -9 5 -12 13 -8 8 5 8 3 -2 -9 -7 -9 -18 -14 -24 -10 -6 3 -7 1 -3 -6 4 -6
11 -9 14 -7 4 2 7 -11 7 -29 0 -18 -3 -31 -7 -28 -5 2 -8 -1 -8 -6 0 -6 5 -11
10 -11 6 0 10 -5 10 -11 0 -5 -5 -7 -12 -3 -7 4 -8 3 -4 -4 4 -7 1 -12 -6 -12
-9 0 -9 -3 -2 -8 17 -11 24 -41 12 -48 -7 -5 -8 -2 -3 6 5 9 4 11 -4 6 -6 -4
-9 -12 -5 -17 3 -5 10 -7 15 -4 5 4 9 -1 9 -10 0 -10 -5 -13 -12 -9 -9 5 -8 2
1 -9 12 -16 12 -17 -5 -11 -15 5 -14 3 4 -10 12 -10 22 -23 21 -29 0 -9 -2 -9
-6 1 -2 6 -12 12 -21 11 -11 0 -12 -2 -4 -6 6 -2 12 -18 12 -34 0 -17 4 -28 9
-25 5 3 14 -1 20 -8 9 -10 9 -16 1 -21 -6 -4 -9 -1 -8 6 2 7 -6 13 -17 14 -11
0 -20 -4 -20 -10 0 -5 -4 -17 -10 -25 -8 -13 -7 -13 8 -1 9 7 14 18 10 25 -3
6 -2 7 3 3 5 -5 9 -12 9 -15 0 -4 4 -13 9 -20 5 -8 4 -18 -3 -25 -9 -9 -11 -8
-6 6 5 10 2 17 -6 17 -7 0 -9 -3 -6 -7 4 -3 1 -13 -6 -21 -9 -13 -9 -14 1 -8
7 4 12 2 12 -8 0 -8 -6 -17 -12 -19 -10 -4 -10 -6 0 -6 6 -1 12 -8 12 -17 0
-9 5 -12 13 -8 8 5 8 3 -2 -9 -7 -9 -18 -14 -24 -10 -6 3 -7 1 -3 -6 4 -6 11
-9 14 -7 4 2 7 -11 7 -29 0 -18 -3 -31 -7 -28 -5 2 -8 -1 -8 -6 0 -6 5 -11 10
-11 6 0 10 -5 10 -11 0 -5 -5 -7 -12 -3 -7 4 -8 3 -4 -4 4 -7 1 -12 -6 -12 -9
0 -9 -3 -2 -8 17 -11 24 -41 12 -48 -7 -5 -8 -2 -3 6 5 9 4 11 -4 6 -6 -4 -9
-12 -5 -17 3 -5 10 -7 15 -4 5 4 9 -1 9 -10 0 -10 -5 -13 -12 -9 -7 5 -8 3 -3
-7 5 -7 10 -20 12 -29 1 -8 4 -27 7 -42 2 -16 -1 -31 -6 -35 -7 -4 -8 -1 -3 8
8 12 6 12 -8 0 -13 -10 -14 -17 -7 -27 6 -7 12 -23 14 -36 1 -13 6 -30 11 -38
7 -13 6 -13 -7 -2 -13 10 -18 10 -24 1 -4 -7 -3 -9 4 -5 23 14 17 -20 -7 -36
-14 -10 -21 -18 -15 -18 5 0 16 6 23 13 12 10 13 8 6 -8 -4 -11 -8 -25 -8 -32
0 -7 -3 -12 -6 -11 -20 2 -31 -3 -26 -12 3 -5 1 -10 -4 -10 -6 0 -11 -5 -11
-11 0 -5 4 -8 9 -5 5 3 11 -3 14 -13 3 -15 1 -18 -12 -14 -14 4 -14 3 -1 -9
17 -14 15 -58 -4 -71 -7 -6 -5 -7 6 -4 9 3 19 0 22 -8 3 -9 0 -12 -8 -9 -8 3
-17 0 -22 -7 -4 -8 -3 -10 4 -5 8 5 12 -1 13 -16 0 -13 2 -33 3 -45 2 -15 -3
-23 -13 -23 -11 0 -11 -3 5 -16 10 -8 13 -12 5 -8 -10 5 -11 1 -6 -16 5 -15 2
-25 -6 -31 -10 -6 -11 -9 -1 -9 6 0 12 -7 12 -16 0 -8 -4 -13 -9 -9 -5 3 -13
1 -16 -5 -4 -6 -1 -9 5 -8 7 2 14 -7 16 -20 2 -14 0 -21 -6 -17 -5 3 -10 1
-10 -4 0 -6 6 -11 13 -11 8 0 7 -3 -3 -10 -8 -5 -11 -12 -7 -16 4 -4 -5 -16
-20 -27 -16 -10 -20 -17 -11 -14 26 9 42 -17 21 -34 -16 -13 -17 -12 -4 4 7 9
9 17 3 17 -18 0 -22 -29 -5 -39 14 -7 13 -10 -6 -16 -12 -3 -18 -11 -15 -17 5
-7 2 -8 -5 -4 -8 6 -11 2 -9 -10 2 -14 -2 -18 -16 -16 -13 2 -16 -1 -10 -10 5
-9 2 -9 -10 2 -11 8 -14 16 -7 18 6 2 11 8 11 13 0 15 -43 -19 -46 -36 -2 -12
2 -13 17 -5 13 7 19 7 19 0 0 -5 -7 -10 -16 -10 -9 0 -12 -5 -8 -12 4 -7 3 -8
-4 -4 -7 4 -12 2 -12 -5 0 -21 -13 -1 -15 23 -4 37 -4 38 -16 38 -5 0 -8 -4
-5 -9 3 -5 -1 -11 -9 -15 -8 -3 -15 0 -15 6 0 6 -3 8 -6 5 -4 -4 -2 -13 4 -20
7 -8 8 -18 4 -22 -4 -5 -1 -5 6 -1 7 4 10 11 7 16 -3 4 2 10 10 14 19 7 19 -8
0 -24 -8 -7 -13 -16 -10 -20 3 -5 -2 -7 -12 -6 -9 2 -17 12 -18 24 -2 30 -7
33 -25 14 -13 -14 -12 -15 5 -8 16 6 17 5 8 -5 -9 -9 -16 -9 -26 -1 -9 8 -17
8 -24 1 -7 -7 -10 -3 -9 13 1 13 -1 31 -6 40 -8 16 -10 16 -42 -1 -25 -14 -33
-16 -33 -5 0 7 4 11 9 8 4 -3 8 0 8 7 0 6 -8 9 -20 6 -16 -4 -18 -2 -11 12 8
13 5 17 -12 18 -17 2 -19 0 -7 -8 11 -7 7 -8 -14 -5 -37 7 -42 13 -17 21 24 7
28 22 6 22 -8 0 -12 -4 -9 -9 3 -4 -6 -8 -20 -8 -33 0 -42 3 -39 13 2 4 -2 7
-8 7 -5 0 -7 5 -3 11 4 8 0 8 -15 0 -24 -13 -28 -23 -6 -15 8 4 15 2 15 -4 0
-11 -25 -10 -36 1 -11 11 -52 8 -59 -3 -4 -6 -11 -8 -16 -4 -5 3 -7 9 -4 13 2
5 -1 16 -9 26 -11 15 -13 16 -13 1 0 -9 4 -16 8 -16 5 0 6 -7 2 -16 -5 -14 -8
-12 -19 7 -7 13 -13 18 -14 10 0 -8 -6 -11 -16 -7 -9 3 -12 2 -9 -5 4 -6 14
-8 22 -5 8 3 11 2 8 -3 -3 -6 -14 -9 -25 -8 -19 1 -24 10 -21 30 1 5 -3 6 -8
2 -6 -3 -7 -13 -4 -23 3 -9 3 -14 -2 -10 -4 4 -14 3 -22 -4 -11 -9 -15 -7 -20
10 -3 12 -9 22 -14 22 -5 0 -6 -7 -3 -15 4 -8 1 -15 -5 -15 -6 0 -11 8 -11 18
0 14 -2 15 -9 2 -6 -8 -7 -18 -4 -24 3 -5 1 -6 -6 -2 -6 4 -8 13 -4 19 4 7 -2
5 -12 -3 -11 -9 -16 -10 -11 -2 4 6 3 12 -3 12 -5 0 -12 -4 -15 -8 -6 -11 -67
-9 -85 2 -11 7 -13 5 -7 -9 5 -15 4 -16 -9 -5 -13 11 -14 10 -9 -5 6 -15 4
-16 -13 -6 -17 8 -22 7 -27 -4 -3 -9 -17 -20 -31 -25 -14 -5 -25 -17 -25 -25
0 -9 -4 -14 -9 -10 -5 3 -11 -5 -13 -17 -2 -13 -9 -22 -17 -20 -12 3 -12 1 -1
-13 11 -14 11 -16 -1 -13 -8 2 -13 -3 -11 -12 2 -8 0 -12 -4 -8 -4 4 -13 0
-21 -10 -10 -11 -12 -12 -8 -2 4 8 -1 6 -10 -5 -9 -11 -18 -19 -20 -17 -14 7
-25 0 -26 -15 0 -15 -2 -15 -9 2 -5 11 -9 15 -9 10 -1 -6 -10 -16 -21 -22 -17
-11 -19 -10 -14 5 5 14 3 14 -10 -2 -15 -18 -21 -15 -17 8 1 5 -5 3 -14 -4
-11 -9 -15 -24 -12 -47 4 -26 2 -31 -8 -23 -15 12 -39 -11 -28 -26 4 -5 1 -3
-7 4 -13 11 -13 14 -1 21 10 7 7 9 -11 8 -22 -2 -25 -5 -16 -21 7 -13 7 -16
-1 -12 -12 8 -30 -24 -24 -44 3 -10 2 -11 -4 -4 -9 13 -45 15 -37 2 3 -5 9 -6
13 -4 4 3 8 -1 8 -8 0 -7 -10 -12 -22 -11 -13 2 -22 -3 -22 -11 0 -9 4 -11 12
-4 9 7 17 5 26 -7 13 -16 12 -17 -3 -5 -9 7 -19 9 -22 4 -3 -5 -17 -8 -31 -7
-14 2 -23 -1 -20 -5 3 -5 -4 -12 -16 -15 -11 -4 -18 -9 -15 -12 3 -3 17 2 30
11 15 9 27 12 31 6 3 -6 4 -11 1 -11 -3 -1 -9 -2 -13 -3 -22 -5 -53 -28 -48
-37 4 -5 -1 -12 -10 -15 -9 -4 -12 -10 -7 -13 6 -3 12 -17 13 -31 2 -14 11
-31 19 -38 8 -8 9 -11 3 -7 -9 4 -11 1 -7 -10 5 -12 9 -13 20 -4 8 7 17 9 21
5 3 -3 1 -6 -5 -6 -7 0 -12 -7 -12 -16 0 -14 3 -14 15 -4 13 11 14 10 9 -4 -3
-9 -11 -16 -17 -16 -6 0 -1 -7 11 -16 16 -11 21 -22 17 -37 -5 -20 -5 -20 5
-4 9 15 8 22 -5 37 -11 12 -13 20 -5 25 6 4 9 1 8 -7 -2 -7 2 -12 8 -11 7 1
11 -10 10 -28 -1 -17 2 -33 7 -36 6 -3 7 -1 3 5 -3 6 -1 14 6 18 7 4 10 4 6
-1 -4 -4 -3 -14 4 -22 9 -11 8 -13 -2 -11 -9 2 -15 -6 -16 -19 -1 -12 3 -20 8
-17 4 3 6 9 4 13 -3 4 1 8 9 8 12 0 12 -3 2 -16 -6 -9 -18 -21 -26 -27 -12 -9
-11 -13 5 -23 17 -10 16 -11 -7 -7 -24 4 -26 2 -23 -27 4 -29 3 -30 -11 -11
-14 18 -14 18 -10 -5 2 -13 0 -31 -6 -40 -8 -13 -9 -13 -5 4 7 27 -9 54 -18
30 -3 -9 -11 -13 -16 -10 -6 4 -9 3 -8 -2 5 -15 -30 -55 -42 -48 -9 5 -8 1 1
-16 12 -23 11 -23 -6 -9 -17 14 -18 14 -5 -10 l13 -25 -23 20 -23 20 19 -30
c11 -17 14 -26 5 -21 -8 5 -17 3 -23 -5 -6 -10 -7 -6 -3 11 5 19 4 22 -4 10
-6 -8 -11 -11 -11 -6 0 5 -7 3 -15 -4 -9 -7 -14 -19 -11 -27 4 -9 -3 -8 -21 4
-15 10 -24 12 -20 6 5 -8 2 -13 -8 -13 -8 0 -18 -7 -21 -15 -4 -8 -10 -12 -15
-9 -13 8 -11 -10 4 -26 10 -12 9 -12 -5 -1 -10 7 -18 10 -18 6 0 -4 -8 -1 -17
6 -13 11 -15 11 -9 1 6 -10 1 -12 -20 -9 -16 2 -38 0 -49 -5 -19 -8 -19 -8 1
-5 11 3 21 -1 21 -7 0 -7 -18 -10 -44 -9 -24 0 -40 -3 -37 -8 3 -5 10 -7 15
-4 5 4 9 -1 9 -10 0 -9 -4 -13 -10 -10 -5 3 -10 1 -10 -5 0 -6 -5 -8 -12 -4
-8 5 -9 2 -4 -12 17 -43 15 -52 -9 -49 -14 1 -22 -1 -20 -6 3 -4 0 -9 -7 -11
-7 -3 -5 -7 6 -11 10 -4 15 -3 11 3 -3 6 -1 10 4 10 16 0 13 -16 -6 -31 -9 -8
-14 -9 -10 -3 3 6 0 11 -7 11 -8 0 -12 -7 -8 -15 3 -10 1 -13 -6 -8 -6 3 -13
2 -16 -3 -4 -5 -1 -13 5 -17 8 -4 9 -3 5 4 -10 17 -1 15 14 -3 10 -12 8 -14
-9 -10 -12 2 -21 -1 -21 -6 0 -6 -5 -7 -10 -4 -6 4 -7 12 -4 18 5 8 3 8 -6 0
-20 -19 -21 -43 -2 -37 14 5 14 4 -1 -6 -9 -6 -22 -8 -29 -4 -7 5 -9 2 -5 -9
4 -11 2 -14 -9 -10 -10 4 -13 0 -8 -13 5 -18 5 -18 -6 -1 -9 14 -15 15 -31 6
-11 -6 -18 -17 -15 -24 2 -7 -2 -21 -10 -32 -11 -14 -13 -15 -8 -2 3 10 1 20
-5 24 -6 3 -11 -1 -11 -9 0 -9 -5 -16 -11 -16 -5 0 -7 5 -3 12 4 6 3 8 -4 4
-6 -3 -9 -15 -7 -26 3 -13 -1 -17 -11 -13 -7 3 -11 10 -7 17 3 6 -2 4 -13 -5
-10 -9 -27 -15 -37 -14 -9 2 -15 -1 -11 -6 3 -5 10 -6 16 -3 6 4 6 -2 -1 -15
-7 -11 -14 -21 -17 -21 -3 0 -3 4 0 9 3 5 0 14 -8 20 -10 9 -17 7 -27 -6 -13
-16 -12 -17 4 -4 9 7 17 9 17 3 0 -18 -29 -21 -39 -4 -8 14 -9 12 -7 -11 1
-15 6 -30 9 -34 4 -3 7 -11 7 -17 0 -6 -5 -4 -10 4 -5 8 -10 12 -11 8 -1 -5
-2 -11 -3 -15 -1 -5 -5 -14 -10 -22 -6 -10 -5 -12 2 -7 7 4 13 2 13 -3 3 -26
4 -30 11 -36 9 -10 -2 -36 -13 -29 -5 3 -6 -2 -3 -11 5 -12 10 -13 17 -6 6 6
16 11 21 11 6 0 3 -5 -6 -11 -10 -5 -18 -15 -18 -20 0 -6 6 -7 13 -3 6 4 3 -3
-8 -16 -11 -13 -14 -20 -7 -16 9 5 13 3 11 -5 -4 -35 0 -42 19 -28 16 13 16
13 0 -7 -21 -25 -24 -41 -4 -25 11 9 16 9 22 0 4 -7 3 -9 -4 -5 -14 9 -21 -15
-10 -37 5 -9 6 -23 2 -29 -4 -6 -3 -8 2 -5 6 3 16 2 24 -4 13 -7 12 -9 -2 -9
-9 0 -20 -5 -23 -10 -4 -6 -1 -9 5 -8 7 2 14 -6 16 -17 1 -11 7 -21 12 -23 5
-1 7 -14 4 -27 -3 -18 3 -31 19 -45 l24 -21 -35 16 c-25 11 -30 12 -18 2 10
-8 14 -18 10 -22 -4 -5 -1 -5 6 -1 6 4 12 2 12 -4 0 -6 4 -9 9 -5 5 3 12 1 16
-4 3 -6 -6 -8 -22 -5 -27 5 -27 5 -8 -11 11 -8 16 -15 10 -14 -23 3 -27 -2
-14 -17 10 -13 10 -17 -2 -25 -10 -8 -9 -9 7 -4 29 8 42 -24 17 -43 -16 -13
-16 -13 7 -7 21 7 23 6 12 -7 -10 -12 -10 -18 2 -27 8 -6 19 -10 26 -9 7 2 15
-3 17 -9 3 -7 0 -13 -7 -13 -6 0 -8 5 -4 12 4 7 3 8 -5 4 -9 -6 -9 -11 0 -22
9 -11 8 -14 -5 -15 -35 -3 -41 -5 -38 -17 1 -7 -5 -12 -14 -12 -9 0 -12 -5 -8
-12 5 -7 3 -8 -5 -3 -9 5 -10 10 -2 18 6 6 11 16 11 21 0 6 -4 5 -9 -2 -4 -7
-23 -14 -42 -14 -19 -1 -28 -3 -21 -5 6 -3 9 -9 6 -15 -4 -5 4 -5 16 2 12 7
20 7 16 2 -3 -6 0 -12 6 -14 7 -3 -2 -5 -19 -5 -18 0 -33 5 -33 11 0 5 -6 1
-14 -9 -8 -11 -12 -25 -9 -32 3 -7 -1 -13 -8 -13 -11 0 -11 -3 1 -10 8 -5 10
-10 4 -10 -6 0 -11 -7 -11 -14 0 -8 5 -14 11 -13 6 1 10 -4 8 -11 -1 -8 2 -11
7 -8 5 3 12 -1 15 -10 3 -8 2 -12 -4 -9 -14 9 -12 -9 2 -24 11 -10 10 -12 -2
-9 -8 2 -14 -3 -15 -11 0 -8 -7 -16 -15 -18 -13 -4 -13 -3 0 6 8 6 11 11 6 11
-5 0 -3 6 3 14 8 10 9 16 1 21 -6 4 -9 1 -8 -7 2 -7 -2 -12 -7 -11 -10 1 -14
-15 -15 -62 -1 -11 -4 -15 -8 -10 -13 20 -58 2 -45 -18 4 -7 9 -4 15 9 8 18 8
18 5 -1 -2 -14 -9 -19 -22 -17 -17 3 -17 2 -4 -15 13 -17 13 -17 -4 -4 -10 8
-16 20 -13 26 3 8 -2 11 -15 8 -10 -3 -19 0 -19 6 0 6 -5 11 -11 11 -8 0 -7
-5 1 -15 7 -9 11 -18 8 -21 -3 -2 -13 7 -23 22 -9 15 -13 24 -7 20 11 -7 38
21 28 31 -3 3 -6 1 -6 -5 0 -6 -9 -10 -19 -9 -11 0 -17 6 -14 14 3 7 10 10 17
6 6 -3 3 3 -7 14 -9 11 -14 23 -10 27 5 4 4 7 -2 6 -20 -4 -35 0 -35 10 0 5 8
7 18 4 13 -4 14 -3 4 4 -8 5 -12 11 -11 13 2 2 -2 13 -9 24 -6 11 -12 15 -12
9 0 -5 5 -15 12 -22 9 -9 9 -12 -3 -12 -18 0 -23 41 -6 53 7 5 3 6 -10 2 -18
-5 -22 -3 -17 8 3 8 0 18 -7 23 -7 4 -10 3 -5 -4 3 -6 2 -13 -3 -16 -5 -4 -8
1 -7 11 2 9 11 19 21 23 17 6 17 7 2 13 -9 3 -17 2 -17 -3 0 -6 -8 -10 -17
-10 -15 0 -16 2 -3 10 11 7 12 10 2 10 -9 0 -11 7 -6 23 l7 22 -19 -20 c-11
-12 -15 -15 -11 -8 6 8 1 22 -11 38 -11 14 -19 37 -17 50 1 14 -5 31 -13 37
-13 10 -14 10 -8 1 4 -7 3 -13 -2 -13 -5 0 -12 9 -15 21 -3 12 -10 18 -16 15
-5 -4 -13 -1 -17 5 -4 7 -3 9 3 6 14 -9 24 16 14 32 -4 7 -16 9 -27 5 -19 -7
-19 -6 0 8 15 12 16 17 6 23 -9 6 -11 4 -5 -5 5 -9 4 -11 -4 -6 -9 6 -9 11 0
22 8 9 8 14 1 14 -6 0 -16 -8 -21 -17 -6 -10 -11 -13 -11 -6 0 6 5 15 10 18 6
4 7 11 4 17 -4 7 -2 8 4 4 8 -5 10 -2 6 8 -3 9 -10 14 -14 11 -4 -3 -13 9 -20
25 -7 17 -16 30 -21 30 -5 0 -9 5 -9 11 0 8 4 8 14 -1 12 -9 15 -8 13 9 0 11
-4 18 -9 15 -10 -7 -30 35 -24 51 3 8 1 17 -5 20 -5 4 -6 12 -3 18 4 7 3 8 -1
4 -13 -11 -15 -38 -3 -31 7 5 8 2 4 -5 -5 -7 -11 -10 -14 -6 -11 11 -11 39 1
54 9 12 9 13 -1 7 -16 -9 -16 6 1 24 10 12 9 12 -3 4 -8 -6 -24 -14 -35 -18
-16 -5 -15 -2 5 14 l25 20 -22 6 c-13 3 -20 10 -17 15 3 5 10 7 15 4 5 -3 6 1
2 10 -5 13 -7 14 -14 3 -6 -9 -9 -7 -9 9 0 12 6 24 13 26 9 4 9 6 -1 6 -7 1
-10 6 -6 13 4 7 3 8 -5 4 -6 -4 -9 -12 -6 -17 4 -5 1 -9 -4 -9 -14 0 -14 11 2
35 7 11 12 29 12 40 0 11 3 23 8 26 5 3 2 9 -6 12 -11 4 -15 0 -12 -14 2 -10
0 -19 -6 -19 -10 0 -7 35 4 46 4 4 7 18 7 31 0 16 4 22 12 17 7 -4 8 -3 4 5
-4 6 -12 8 -18 5 -6 -4 -8 1 -3 16 6 17 4 21 -6 14 -10 -6 -10 -3 1 11 14 17
13 18 -2 12 -10 -3 -20 -1 -24 5 -4 6 -3 8 3 5 6 -4 16 0 23 8 11 13 10 14 -5
9 -14 -6 -16 -4 -10 7 7 11 6 12 -6 2 -10 -8 -19 -9 -29 -1 -12 8 -12 9 3 4
11 -3 17 0 17 10 0 10 -6 14 -15 10 -15 -5 -45 18 -45 36 0 6 8 0 18 -13 15
-17 21 -19 27 -9 5 8 4 11 -3 6 -10 -6 -35 25 -29 35 1 3 -2 1 -8 -3 -13 -11
-37 -10 -31 1 4 5 1 11 -5 13 -6 2 -12 16 -12 31 1 25 -1 26 -12 10 -8 -10
-17 -15 -21 -11 -4 4 -1 15 7 25 12 15 12 16 -3 11 -11 -5 -15 -2 -13 10 1 9
-2 20 -7 23 -5 3 -11 15 -12 25 -2 10 -9 18 -17 16 -10 -3 -10 0 1 12 15 19
24 21 14 4 -5 -7 -3 -8 6 -3 9 6 11 4 5 -5 -5 -9 -4 -11 3 -6 17 11 15 14 -20
37 l-33 21 30 -6 c17 -3 24 -3 17 0 -6 3 -9 11 -6 16 5 7 2 8 -6 3 -10 -6 -12
-4 -6 10 5 15 4 16 -9 5 -17 -14 -21 0 -4 17 7 7 6 15 -5 26 -17 17 -22 32 -7
22 5 -3 13 0 17 6 5 8 3 9 -6 4 -10 -6 -12 -4 -7 9 4 9 3 15 -1 12 -4 -2 -16
3 -27 11 -14 11 -15 14 -3 10 11 -4 15 -1 13 11 -1 9 3 21 9 25 6 5 1 5 -11 2
-17 -5 -23 -2 -23 10 0 10 -5 13 -12 9 -7 -4 -8 -3 -4 5 6 9 11 9 22 0 10 -8
14 -8 14 0 0 6 -5 11 -11 11 -5 0 -7 5 -3 11 4 7 -2 6 -17 -1 l-24 -13 20 22
c16 19 17 24 5 31 -9 5 -20 4 -30 -3 -10 -8 -9 -5 2 9 21 24 23 40 6 47 -10 4
-10 6 0 6 7 1 10 6 7 11 -3 6 -1 10 6 10 7 0 9 3 6 6 -4 4 -13 1 -21 -5 -12
-10 -14 -8 -9 11 4 19 3 20 -6 8 -9 -12 -10 -9 -7 13 6 37 -3 61 -18 48 -8 -7
-12 -4 -12 10 0 11 5 18 12 15 7 -3 15 1 17 8 4 9 -2 12 -17 11 -14 -2 -23 3
-23 11 0 10 7 12 21 9 18 -5 19 -5 4 5 -10 6 -15 17 -11 28 4 13 2 13 -10 -3
-8 -11 -19 -17 -23 -12 -4 4 -2 7 4 7 7 0 12 5 12 11 0 5 -5 7 -12 3 -7 -5 -8
-3 -2 7 13 21 14 39 2 39 -6 0 -8 -7 -5 -14 4 -10 1 -13 -8 -9 -10 3 -12 10
-5 22 6 13 4 21 -11 31 -11 9 -19 26 -19 45 0 23 -3 27 -10 15 -6 -9 -10 -10
-10 -3 0 7 8 17 18 23 16 11 16 11 0 6 -20 -6 -23 6 -7 37 9 20 9 20 -4 5 -20
-25 -30 -22 -16 3 9 17 8 20 -3 13 -19 -12 -37 -14 -43 -4 -3 5 4 7 15 5 11
-2 20 0 20 6 0 5 -5 9 -10 9 -6 0 -9 4 -8 9 2 5 -6 17 -17 26 -20 16 -20 16 2
6 33 -16 38 -13 18 9 -18 20 -18 21 1 14 15 -5 16 -4 4 5 -13 9 -13 14 -2 32
8 11 10 19 5 16 -5 -3 -15 -2 -23 4 -13 7 -12 9 2 9 9 0 20 5 24 12 4 7 3 8
-4 4 -15 -9 -16 32 -2 54 5 9 5 19 -1 26 -7 8 -6 14 1 19 13 8 13 25 -1 25 -5
0 -8 -4 -4 -9 3 -6 -5 -15 -17 -21 -22 -11 -22 -10 -4 4 14 11 16 16 6 16 -9
0 -6 6 8 16 12 8 22 20 22 26 0 7 -5 6 -15 -2 -12 -10 -13 -7 -6 17 4 15 7 34
5 41 -1 7 0 8 3 2 9 -18 21 -11 16 10 -3 11 -9 17 -14 14 -5 -3 -6 2 -3 10 3
9 10 14 14 11 5 -3 12 0 16 6 5 8 3 9 -6 4 -10 -6 -12 -4 -6 10 5 15 4 16 -9
5 -13 -11 -14 -10 -9 4 3 9 15 16 25 16 10 0 19 4 19 10 0 5 -7 6 -17 3 -11
-4 -14 -3 -9 6 4 6 3 18 -3 25 -8 9 -7 13 4 13 8 0 12 -4 9 -9 -3 -4 0 -8 5
-8 17 0 13 18 -6 30 -16 10 -16 11 3 7 23 -5 25 5 7 38 -5 11 -9 25 -6 31 2 6
-3 17 -12 24 -12 10 -18 10 -32 -1 -16 -12 -17 -12 -7 1 13 17 15 52 2 44 -5
-3 -6 -9 -3 -14 3 -5 1 -11 -4 -14 -4 -3 -8 2 -8 12 0 32 -3 42 -13 42 -5 0
-7 -7 -4 -15 4 -8 1 -15 -4 -15 -6 0 -9 11 -6 24 2 14 -1 28 -7 32 -8 4 -9 3
-5 -4 5 -8 2 -10 -9 -6 -14 6 -14 8 2 21 14 12 15 14 2 10 -9 -3 -16 1 -16 9
0 7 5 11 11 8 6 -3 4 0 -4 8 -8 7 -21 20 -27 29 -10 13 -10 16 2 16 8 0 12 -3
10 -7 -2 -3 5 -11 16 -18 18 -12 19 -11 7 10 -7 13 -17 26 -23 30 -6 5 -4 8 5
8 13 0 13 1 0 10 -13 8 -13 10 2 10 12 0 15 5 11 17 -4 11 -3 14 5 9 7 -4 12
-1 12 9 0 10 -5 13 -13 9 -7 -4 -9 -3 -4 2 5 5 13 10 18 10 5 1 12 2 15 3 4 0
0 9 -7 19 -13 15 -12 16 3 3 13 -10 15 -18 8 -31 -14 -26 -12 -33 4 -18 8 7
12 16 10 19 -2 4 3 12 11 19 8 7 13 16 10 20 -3 5 0 12 5 15 8 5 5 14 -7 28
-10 11 -13 17 -6 14 6 -4 13 -4 16 0 2 5 2 2 1 -4 -2 -7 1 -13 6 -13 5 0 10
10 12 23 2 12 8 21 14 20 5 -1 10 7 10 18 0 19 -1 19 -13 3 -7 -10 -13 -13
-13 -7 0 7 5 15 10 18 8 5 7 12 -2 23 -11 13 -9 13 13 -1 21 -14 26 -15 26 -2
0 8 -4 12 -8 9 -4 -2 -11 0 -14 6 -4 6 -3 10 2 9 21 -4 33 2 33 16 0 8 4 15
10 15 5 0 9 -5 7 -11 -1 -6 4 -13 11 -15 7 -1 8 0 2 3 -12 5 -4 23 11 23 5 0
9 -8 9 -17 1 -11 6 -7 14 12 10 25 13 26 19 12 4 -11 3 -16 -3 -12 -5 3 -7 -1
-4 -9 5 -12 8 -12 23 2 15 15 15 18 1 29 -12 10 -10 11 15 8 28 -4 28 -4 8 7
-13 6 -23 15 -23 20 0 5 8 5 17 -1 13 -6 22 -5 31 5 10 11 10 14 0 14 -9 0 -9
3 2 11 12 8 9 9 -10 4 -25 -7 -25 -7 4 19 26 24 27 31 2 27 -5 -1 -4 5 4 13
15 19 24 21 14 4 -4 -7 -3 -8 4 -4 7 4 12 16 12 27 0 14 4 18 12 13 8 -5 7 0
-2 11 -14 16 -13 17 8 11 19 -6 22 -4 20 16 -2 15 2 22 11 20 12 -3 12 0 2 11
-6 8 -8 17 -4 19 4 3 3 3 -4 2 -7 -2 -15 2 -19 8 -5 7 -2 8 6 3 10 -6 12 -4 6
10 -5 15 -4 16 9 5 9 -7 18 -10 22 -6 3 3 1 6 -6 6 -7 0 -9 5 -6 10 6 9 -8 14
-28 11 -5 -1 -6 3 -2 8 3 6 12 8 20 4 15 -5 19 5 16 39 -1 9 3 19 9 23 8 5 8
11 -1 21 -6 7 -9 21 -5 29 3 9 2 13 -4 10 -6 -3 -10 1 -10 10 0 9 4 14 9 10 5
-3 13 0 17 6 4 7 3 9 -2 6 -6 -3 -16 -2 -24 4 -13 7 -12 9 2 9 11 0 15 5 12
15 -4 8 -9 13 -13 10 -4 -2 -8 2 -8 10 0 10 5 11 18 4 23 -12 39 -12 20 0 -17
11 -23 39 -10 47 5 3 6 10 3 16 -4 7 0 7 13 0 18 -10 20 -8 18 19 -1 23 2 29
13 24 13 -5 13 -3 1 12 -12 15 -12 16 3 11 16 -7 20 14 5 28 -18 18 -4 25 15
8 13 -10 18 -12 12 -4 -13 19 -16 60 -3 60 5 0 14 11 21 25 6 13 15 22 19 19
5 -3 6 2 3 10 -3 9 -10 13 -16 10 -5 -3 -4 3 4 15 7 12 16 21 21 21 4 0 5 5 2
10 -3 6 1 10 9 10 9 0 16 5 16 11 0 5 -6 7 -12 3 -10 -5 -10 -3 0 7 11 12 14
12 23 -1 8 -12 9 -10 4 8 -4 14 -2 22 6 22 7 0 9 3 6 6 -4 4 -13 2 -20 -4 -10
-9 -14 -8 -14 3 0 7 5 13 11 12 6 -1 10 4 8 12 -3 12 -1 12 14 0 16 -13 16
-12 4 10 -11 21 -10 23 3 18 9 -3 21 2 29 11 11 15 11 15 -3 4 -13 -10 -19 -9
-29 3 -11 13 -10 14 3 9 16 -6 18 10 5 32 -4 6 -1 11 7 11 8 0 12 -4 9 -8 -2
-4 -1 -10 4 -13 4 -2 8 6 8 19 0 13 -3 22 -6 20 -4 -2 -7 2 -7 9 0 8 7 12 15
8 10 -3 13 -1 8 7 -4 6 -2 19 6 28 9 12 9 15 1 9 -7 -4 -13 -2 -13 3 0 6 5 11
10 11 6 0 5 6 -2 14 -7 8 -17 11 -22 8 -5 -3 -6 0 -2 7 6 8 12 9 20 2 9 -8 13
-7 13 2 0 8 -5 14 -11 15 -6 0 -20 3 -31 6 -11 2 -24 5 -30 5 -5 1 -3 5 5 11
9 5 19 5 27 -2 8 -6 16 -8 20 -4 3 3 1 6 -6 6 -7 0 -10 4 -7 8 2 4 -9 9 -26
10 -39 3 -51 10 -44 29 4 8 1 11 -5 8 -6 -4 -8 -14 -5 -22 4 -9 1 -13 -6 -11
-7 3 -13 10 -13 16 0 5 -4 14 -9 19 -5 5 -6 3 -2 -4 4 -8 2 -13 -5 -13 -9 0
-9 -3 0 -14 8 -10 9 -16 1 -21 -6 -4 -9 -1 -8 6 2 6 -3 14 -11 17 -9 3 -11 0
-6 -8 6 -9 3 -10 -12 -2 -17 9 -19 8 -18 -11 2 -32 -17 -48 -32 -28 -11 14
-12 13 -8 -7 2 -14 0 -20 -7 -16 -6 4 -8 -2 -4 -17 l7 -24 -16 25 -15 25 4
-27 c5 -28 -31 -78 -55 -78 -7 0 -9 -3 -6 -7 4 -3 -1 -12 -11 -20 -16 -13 -16
-14 0 -9 12 3 15 1 11 -9 -3 -8 -9 -12 -14 -9 -5 3 -10 -9 -10 -25 -2 -43 -3
-48 -11 -56 -3 -4 -5 5 -4 19 2 14 -1 23 -5 20 -5 -3 -7 -18 -4 -34 3 -16 0
-32 -5 -35 -6 -4 -8 -11 -5 -16 4 -5 -2 -6 -12 -2 -16 6 -16 5 -4 -10 8 -10
11 -20 7 -24 -3 -3 -6 -1 -6 5 0 7 -7 12 -15 12 -8 0 -15 -5 -15 -11 0 -5 6
-7 13 -3 8 5 7 2 -2 -9 -9 -12 -17 -14 -26 -7 -14 12 -25 3 -25 -22 0 -10 -5
-18 -11 -18 -5 0 -7 -5 -3 -12 5 -7 3 -8 -5 -3 -9 5 -10 10 -2 18 6 6 11 15
11 21 0 18 -29 -28 -30 -46 0 -10 -5 -18 -11 -18 -5 0 -7 5 -3 12 4 7 3 8 -5
4 -6 -4 -9 -11 -6 -16 3 -4 2 -10 -2 -13 -5 -2 -2 -2 5 0 7 1 11 -1 7 -6 -3
-5 -1 -11 4 -13 6 -1 2 -13 -7 -26 -17 -21 -18 -21 -18 -3 0 11 4 17 8 15 4
-3 8 0 8 5 0 16 -16 13 -31 -6 -12 -15 -12 -16 1 -8 12 6 13 6 2 -6 -11 -12
-14 -12 -22 1 -7 11 -9 10 -7 -8 0 -12 8 -22 16 -22 8 0 12 -3 8 -6 -9 -9 -48
6 -42 17 3 5 -1 6 -9 3 -18 -7 -22 -25 -5 -21 6 1 14 -5 16 -13 3 -9 1 -11 -4
-5 -4 6 -19 11 -33 11 -20 1 -22 0 -9 -10 13 -10 13 -13 -3 -28 -10 -10 -18
-13 -18 -7 0 5 -5 7 -10 4 -5 -3 -10 2 -11 12 0 11 -3 13 -6 5 -3 -7 1 -20 9
-29 12 -15 11 -15 -9 -4 -27 14 -25 15 -27 -29 -2 -39 -17 -45 -55 -22 -17 10
-26 11 -35 2 -8 -8 -7 -10 7 -5 10 4 17 2 17 -4 0 -6 -6 -10 -12 -8 -7 1 -12
-5 -10 -13 3 -11 0 -11 -15 3 -16 13 -22 14 -33 4 -12 -10 -12 -9 -1 5 7 10
17 16 20 13 4 -2 8 2 8 10 0 8 -4 12 -9 9 -4 -3 -11 2 -14 11 -5 13 -8 14 -15
3 -7 -11 -10 -10 -21 1 -7 8 -8 11 -2 8 7 -4 15 0 18 9 3 9 13 14 21 10 8 -3
17 -1 20 5 4 5 10 7 14 5 4 -3 13 -1 21 4 11 7 8 9 -10 7 -14 -1 -26 2 -27 8
-2 5 5 10 15 10 9 0 16 6 14 13 -1 8 2 11 7 8 5 -4 15 2 21 11 10 15 11 15 6
1 -2 -9 1 -19 8 -21 9 -4 12 3 10 19 -1 13 2 22 7 18 5 -3 7 -9 5 -13 -3 -4 0
-13 6 -21 8 -12 9 -12 4 2 -3 10 2 23 12 30 17 12 17 14 1 30 -10 9 -21 13
-25 10 -5 -4 -2 1 5 11 15 20 26 23 15 5 -4 -7 -3 -10 1 -5 5 4 10 18 11 30 2
12 0 16 -2 10 -8 -18 -27 -16 -21 1 3 8 -1 17 -9 20 -9 4 -12 11 -8 18 6 10 3
9 -9 0 -20 -17 -37 -8 -32 18 2 13 -1 17 -10 14 -8 -3 -13 -11 -11 -17 1 -7 1
-9 -1 -4 -3 4 -10 4 -16 0 -6 -4 -8 -1 -5 8 4 10 -3 14 -23 14 -30 0 -39 -10
-16 -18 6 -3 2 -4 -10 -4 -18 1 -22 6 -18 22 3 11 2 14 -1 8 -3 -7 -12 -13
-20 -13 -9 0 -13 4 -9 9 3 5 1 13 -5 16 -6 4 -10 3 -9 -2 3 -20 -2 -34 -11
-28 -6 4 -8 11 -5 16 3 5 -1 6 -9 3 -9 -3 -13 -11 -9 -17 3 -6 1 -7 -6 -3 -6
4 -9 12 -6 17 11 16 -7 10 -22 -8 -8 -10 -11 -12 -7 -4 12 23 13 61 2 61 -6 0
-7 -8 -4 -17 5 -15 4 -15 -9 1 -8 11 -22 21 -31 22 -9 1 -19 5 -22 9 -4 3 9 3
28 0 22 -3 30 -2 21 4 -11 7 -11 10 0 15 8 3 4 3 -7 1 -13 -3 -24 0 -27 8 -3
9 4 12 24 11 16 -1 26 2 23 7 -3 5 -9 7 -14 4 -5 -3 -12 0 -16 7 -4 7 -4 10 1
6 4 -4 15 -2 23 5 10 8 13 8 9 1 -4 -7 0 -15 9 -18 12 -5 14 -1 9 17 -7 21 -7
21 8 2 12 -15 18 -17 29 -7 8 6 18 9 22 5 4 -4 9 3 13 15 3 12 9 19 14 17 4
-3 6 -13 3 -23 -5 -15 -5 -15 6 1 6 9 8 23 5 30 -4 6 1 3 9 -7 14 -18 16 -18
16 -3 0 15 3 16 21 6 17 -9 20 -8 14 2 -6 9 -3 10 10 5 15 -5 16 -4 6 8 -18
22 23 43 47 24 11 -9 14 -10 8 0 -4 6 -2 13 3 13 12 2 26 5 39 9 4 1 11 2 15
1 5 -1 6 3 2 9 -3 5 -2 10 3 10 6 0 8 8 5 19 -3 10 0 22 6 25 6 4 9 1 5 -7 -3
-8 0 -18 6 -22 6 -3 9 -1 8 6 -2 6 3 14 10 16 8 3 10 -1 6 -14 -4 -12 0 -10
12 6 12 17 14 26 6 29 -7 2 -12 8 -12 14 0 6 6 6 15 -2 15 -12 20 -5 16 25 -1
6 8 -1 20 -15 l22 -25 -6 23 c-5 20 -2 23 13 19 13 -3 17 0 13 9 -3 8 -10 14
-16 14 -6 0 -7 3 -4 7 4 3 17 -2 28 -13 l22 -19 -17 27 c-10 16 -13 29 -7 32
5 4 13 1 17 -5 5 -8 3 -9 -6 -4 -9 5 -11 4 -6 -4 10 -16 25 -5 21 17 -1 10 -9
16 -21 14 -15 -2 -16 -1 -4 7 8 5 18 7 22 5 17 -11 7 9 -14 28 -13 11 -18 17
-12 14 7 -3 17 1 24 9 11 13 10 14 -5 9 -14 -6 -16 -4 -10 7 8 12 6 12 -8 0
-10 -8 -20 -11 -24 -7 -3 3 0 6 8 6 12 0 12 2 0 9 -12 8 -12 12 -2 25 9 11 10
16 2 16 -6 0 -11 -5 -11 -11 0 -8 -6 -7 -17 2 -15 11 -16 11 -5 -1 6 -8 12
-18 12 -24 0 -5 -8 1 -19 12 -10 12 -23 22 -29 22 -6 0 -13 6 -15 13 -4 10 -6
10 -6 0 -1 -7 -6 -13 -12 -13 -5 0 -8 4 -5 8 2 4 -4 8 -14 8 -10 0 -16 -4 -14
-8 3 -4 -4 -8 -16 -8 -13 0 -19 4 -14 12 4 7 3 8 -5 4 -6 -4 -9 -11 -7 -15 3
-4 1 -13 -5 -21 -6 -11 -9 -12 -9 -2 0 7 -4 10 -10 7 -5 -3 -10 -1 -10 5 0 7
7 10 14 7 10 -4 13 -1 9 9 -4 10 -9 12 -18 4 -15 -12 -77 -9 -88 5 -5 6 -6 1
-3 -11 4 -14 2 -21 -8 -21 -9 0 -13 4 -10 9 4 7 -26 5 -46 -2 -3 -2 -8 -2 -12
-2 -3 1 -12 -6 -20 -16 -12 -15 -11 -16 5 -3 11 9 17 10 17 2 0 -6 -3 -11 -7
-12 -5 0 -16 -2 -25 -4 -10 -2 -21 2 -25 7 -4 7 -1 8 7 3 9 -5 11 -4 6 4 -8
12 -30 1 -48 -24 -15 -20 -7 7 9 33 l17 27 -22 -19 c-12 -11 -25 -16 -29 -13
-3 4 0 7 8 7 12 0 11 2 -1 11 -12 9 -12 10 4 5 13 -5 17 -2 13 8 -4 11 -1 13
11 9 15 -6 16 -5 2 12 -14 17 -14 18 8 6 16 -9 22 -18 17 -29 -5 -14 -4 -14 6
-5 10 10 9 17 -7 34 -10 13 -13 19 -6 15 7 -4 12 -1 12 8 0 9 6 13 14 10 13
-5 32 38 27 59 -1 5 3 6 9 2 6 -3 8 -11 5 -16 -4 -5 -1 -9 5 -9 7 0 10 6 7 13
-2 6 0 20 5 30 7 14 13 15 31 6 21 -12 22 -11 4 8 -22 25 -6 42 36 37 24 -2
25 -1 12 12 -19 19 -20 30 -2 15 11 -8 19 -5 36 15 l22 26 -23 -6 c-13 -3 -17
-3 -10 0 10 5 10 9 0 22 -11 13 -11 14 2 7 22 -14 39 -15 47 -3 3 6 2 8 -3 5
-6 -3 -15 3 -22 13 -7 13 -8 21 -2 25 6 4 9 1 8 -6 -2 -6 4 -14 12 -17 8 -2
12 -1 8 3 -8 9 16 35 32 35 6 0 8 5 5 10 -4 6 -12 7 -18 4 -7 -4 -1 5 13 18
14 14 28 24 31 22 3 -2 6 3 6 11 0 8 -4 12 -8 10 -4 -3 -9 2 -13 10 -3 8 0 17
6 21 7 5 8 2 3 -7 -6 -10 -5 -11 4 -3 14 12 24 57 11 49 -8 -5 -21 20 -19 39
1 14 -52 45 -71 41 -9 -2 -17 3 -17 11 0 9 4 11 12 4 8 -7 12 -5 12 4 0 7 -11
12 -26 11 -18 -1 -26 -7 -25 -18 2 -24 -1 -22 -26 16 -12 17 -19 24 -17 15 3
-9 -1 -19 -9 -22 -21 -8 -24 -8 -24 5 0 5 4 7 10 4 5 -3 10 -1 10 5 0 7 -6 10
-14 7 -8 -3 -17 -1 -20 6 -4 7 -4 -1 -1 -18 4 -20 3 -25 -4 -16 -11 16 -34 5
-24 -12 4 -8 1 -7 -9 1 -12 9 -18 10 -23 2 -5 -8 -14 -6 -28 7 -12 10 -19 14
-15 9 16 -19 -11 -43 -44 -39 -18 2 -44 4 -57 4 -13 1 -19 4 -13 8 15 9 8 47
-9 43 -9 -2 -9 1 2 14 8 9 13 19 12 21 -6 8 6 7 14 -1 4 -5 3 -7 -3 -3 -6 3
-11 0 -11 -7 0 -8 6 -12 14 -9 19 7 16 20 -8 36 l-21 15 21 7 c12 3 21 11 21
17 0 6 -6 5 -15 -2 -13 -10 -18 -11 -28 -1 -9 10 -8 11 6 6 20 -8 22 6 5 38
-10 19 -9 21 4 9 13 -10 18 -10 24 -1 4 8 3 9 -4 5 -8 -5 -12 0 -12 13 0 12 6
21 13 21 6 1 3 6 -9 13 -12 7 -19 18 -17 25 3 8 -1 10 -14 6 -15 -6 -16 -4 -5
7 17 19 15 34 -3 19 -9 -7 -18 -10 -22 -6 -3 3 -1 6 5 6 7 0 12 5 12 12 0 6
-3 8 -7 5 -3 -4 -14 6 -24 21 -16 27 -48 36 -65 20 -3 -3 -19 -2 -35 2 -17 5
-31 5 -35 -1 -3 -5 -9 -7 -13 -5 -4 3 -6 -7 -6 -22 2 -38 -3 -44 -28 -31 -21
12 -21 12 -5 -13 17 -25 16 -26 -5 -20 l-22 5 23 -20 c18 -17 20 -22 8 -26 -9
-4 -18 -1 -22 5 -5 7 -2 8 6 3 9 -5 11 -4 6 4 -11 17 -25 4 -19 -19 3 -12 0
-20 -8 -20 -7 0 -9 -3 -6 -6 4 -4 13 -2 20 5 11 9 17 7 28 -6 13 -17 13 -17
-5 -3 -18 14 -19 13 -14 -6 3 -13 0 -21 -8 -21 -7 0 -10 5 -7 11 3 7 1 6 -7
-1 -13 -12 -5 -37 10 -28 5 3 12 0 16 -6 4 -8 3 -9 -4 -5 -13 8 -35 -28 -24
-39 4 -5 2 -5 -5 -1 -15 9 -26 -10 -25 -45 0 -16 -4 -32 -10 -35 -7 -5 -8 -2
-3 6 6 9 4 11 -4 6 -9 -6 -8 -13 6 -28 18 -21 18 -21 -7 -8 -23 12 -24 12 -11
-4 11 -13 11 -20 3 -28 -7 -7 -12 -17 -12 -22 0 -6 5 -4 10 4 8 12 9 10 7 -7
-2 -12 -7 -26 -12 -30 -4 -5 -5 -3 -2 3 4 7 0 15 -9 18 -8 3 -12 2 -9 -4 3 -6
3 -16 -2 -22 -4 -7 -8 -17 -8 -23 -1 -5 -7 -9 -15 -7 -10 1 -8 -3 4 -13 19
-15 19 -15 -3 -15 -12 0 -20 -4 -16 -10 3 -5 11 -8 18 -6 7 1 9 1 4 -1 -4 -3
-4 -10 0 -16 11 -18 12 -38 2 -31 -5 3 -7 9 -4 14 3 5 -4 14 -15 20 -20 11
-21 10 -11 -9 14 -25 14 -41 0 -41 -5 0 -7 5 -3 12 4 7 3 8 -4 4 -9 -5 -9 -12
0 -26 7 -10 15 -17 18 -15 4 2 6 -8 5 -23 -1 -28 -8 -33 -22 -18 -4 5 -3 7 3
3 6 -3 11 0 11 7 0 8 -6 12 -14 9 -17 -7 -17 -18 1 -33 8 -6 12 -19 9 -27 -4
-10 -2 -14 4 -10 14 9 23 -15 18 -43 -2 -11 0 -18 6 -15 5 4 6 11 3 17 -5 7
-1 9 9 5 10 -4 20 0 26 11 6 9 11 12 11 6 0 -6 -7 -17 -15 -24 -12 -10 -12
-15 3 -38 9 -15 21 -30 27 -34 6 -5 5 -8 -3 -8 -7 0 -10 -4 -7 -10 3 -6 -1 -7
-9 -4 -10 4 -16 1 -17 -7 -2 -39 -6 -60 -13 -66 -4 -5 -7 -1 -6 7 5 31 -1 46
-9 25 -5 -11 -4 -29 2 -40 9 -18 9 -19 -7 -6 -9 8 -20 11 -23 7 -4 -4 -3 -10
3 -14 12 -8 12 -27 1 -39 -5 -4 -8 -3 -7 2 5 21 0 33 -15 39 -13 5 -14 2 -4
-17 11 -20 11 -21 -5 -8 -9 8 -16 10 -15 5 4 -22 -2 -35 -13 -28 -7 4 -8 3 -4
-4 4 -7 1 -12 -8 -12 -8 0 -18 -4 -21 -10 -3 -5 0 -7 8 -4 8 3 17 1 21 -4 3
-5 -8 -8 -25 -7 -16 1 -33 -3 -36 -8 -3 -6 -1 -7 5 -3 7 4 12 3 12 -3 0 -6 8
-8 18 -5 14 5 14 4 2 -4 -8 -6 -18 -8 -23 -5 -5 3 -7 0 -5 -8 8 -21 -10 -49
-26 -43 -11 4 -13 0 -9 -17 5 -17 3 -21 -9 -17 -19 8 -17 -30 3 -43 20 -13 2
-11 -23 2 -16 9 -19 8 -12 -3 5 -7 9 -16 9 -20 0 -3 4 -10 9 -15 5 -5 6 -2 1
6 -5 10 -4 12 4 7 17 -11 4 -26 -17 -20 -14 5 -14 3 2 -10 11 -9 14 -16 8 -16
-7 0 -12 -15 -12 -36 0 -24 -4 -33 -12 -28 -7 4 -8 3 -4 -5 4 -6 1 -14 -8 -17
-12 -5 -13 -9 -3 -19 7 -7 16 -10 21 -7 5 3 6 0 2 -7 -5 -7 -12 -9 -19 -3 -8
6 -18 2 -29 -9 -14 -15 -14 -18 -2 -23 10 -4 12 -2 8 6 -5 7 -3 8 6 3 9 -6 11
-4 5 5 -5 9 -4 11 4 6 8 -5 5 -16 -9 -37 -15 -20 -17 -29 -8 -29 10 0 9 -3 -2
-10 -8 -5 -19 -10 -25 -10 -5 0 -3 5 5 10 8 5 11 10 5 10 -23 0 -32 -18 -31
-60 1 -31 -3 -44 -11 -43 -18 4 -11 -18 11 -37 16 -14 17 -17 3 -17 -9 0 -13
5 -10 11 4 6 2 7 -3 3 -5 -5 -9 -12 -9 -15 0 -4 -4 -13 -9 -20 -7 -11 -4 -12
12 -3 14 8 23 8 27 1 4 -6 3 -9 -2 -8 -10 3 -67 -53 -68 -67 -1 -5 3 -16 9
-23 7 -11 5 -13 -8 -10 -21 3 -31 -27 -14 -39 7 -4 8 -1 3 7 -5 9 -4 11 4 6 7
-5 9 -12 3 -19 -12 -17 -8 -42 7 -39 7 1 10 -2 7 -7 -4 -5 3 -12 14 -16 11 -4
18 -11 15 -16 -4 -5 -1 -9 4 -9 6 0 11 9 11 19 0 17 24 33 55 36 6 0 9 7 7 15
-3 11 0 11 12 0 17 -14 22 -25 7 -15 -5 3 -12 1 -16 -5 -4 -6 -10 -8 -14 -5
-5 2 -16 -1 -26 -9 -15 -11 -16 -13 -1 -13 9 0 16 4 16 9 0 4 3 7 8 7 4 -1 9
0 12 1 19 7 41 7 45 0 3 -5 13 -6 22 -3 11 4 14 2 11 -8 -3 -8 -11 -13 -18
-11 -11 2 -11 0 -1 -12 8 -10 9 -16 1 -21 -8 -5 -8 -11 1 -21 6 -8 8 -14 4
-14 -4 0 -1 -8 6 -17 13 -16 12 -17 -3 -4 -10 7 -15 18 -12 23 4 6 -3 5 -14
-1 -14 -7 -19 -17 -15 -28 5 -12 3 -14 -8 -8 -8 4 -11 4 -6 0 4 -5 0 -16 -9
-26 -9 -10 -14 -25 -10 -34 3 -9 2 -13 -4 -10 -6 3 -13 -1 -16 -9 -5 -14 -8
-14 -21 -1 -8 8 -23 15 -34 15 -10 0 -19 4 -19 9 0 5 -7 12 -16 15 -8 3 -12 2
-9 -3 3 -5 0 -13 -6 -17 -8 -5 -9 -3 -4 6 6 10 4 12 -10 6 -16 -6 -16 -4 -4
11 9 11 10 14 2 9 -8 -4 -13 -2 -13 5 0 8 -4 8 -16 -1 -12 -11 -15 -11 -12 0
2 7 -2 14 -9 17 -8 3 -11 -3 -8 -18 2 -12 1 -18 -3 -15 -4 4 -7 11 -7 15 0 4
-7 15 -16 24 -13 12 -19 13 -29 4 -10 -10 -11 -7 -5 13 4 17 3 21 -3 12 -5 -8
-12 -13 -16 -13 -20 3 -26 0 -21 -9 3 -5 0 -7 -9 -4 -9 3 -12 13 -9 22 5 14 3
15 -7 5 -11 -10 -11 -15 0 -28 11 -13 10 -14 -5 -9 -12 5 -16 4 -12 -3 5 -7
-3 -10 -21 -9 -17 1 -29 -3 -29 -11 0 -6 5 -9 11 -6 6 4 5 -1 -3 -11 -11 -13
-16 -14 -22 -4 -14 21 -10 0 4 -23 9 -17 9 -23 0 -26 -10 -4 -10 -7 0 -18 7
-7 17 -11 22 -8 6 2 2 -2 -8 -10 -19 -16 -24 -32 -5 -21 6 4 8 3 4 -4 -3 -6
-16 -9 -28 -7 -11 3 -17 1 -14 -3 4 -4 12 -8 17 -8 23 -3 23 -6 -1 -20 -23
-14 -23 -14 -2 -9 13 4 22 2 22 -4 0 -6 -6 -11 -14 -11 -24 0 -27 -29 -4 -41
16 -9 19 -8 12 3 -6 11 -5 11 9 -1 21 -17 13 -31 -13 -26 -12 2 -18 0 -15 -6
4 -5 11 -7 16 -4 5 4 9 -3 9 -14 0 -10 -6 -22 -12 -25 -7 -3 -2 -3 12 1 21 5
23 4 13 -9 -10 -12 -10 -19 3 -34 14 -18 14 -18 4 6 -11 24 -10 24 5 5 14 -18
14 -21 -2 -34 -15 -12 -16 -13 -1 -8 9 3 19 0 22 -9 10 -25 7 -27 -11 -13 -17
13 -17 13 -3 -6 19 -26 32 -35 41 -29 12 7 4 -23 -11 -42 -14 -17 -14 -18 3
-5 12 9 17 10 17 2 0 -7 5 -9 13 -5 7 5 6 0 -3 -11 -14 -17 -13 -18 3 -12 21
8 22 3 2 -17 -9 -9 -11 -17 -5 -21 5 -3 10 -1 10 4 0 14 27 14 35 1 4 -6 -1
-7 -11 -3 -11 4 -15 3 -11 -4 4 -6 2 -13 -5 -15 -7 -3 -5 -7 6 -11 10 -4 15
-3 11 3 -3 6 -1 10 4 10 14 0 14 -17 1 -25 -15 -9 -12 -21 5 -23 8 -1 22 -3
30 -4 10 -1 12 -5 4 -14 -11 -14 -9 -35 6 -47 6 -5 4 -7 -5 -4 -8 2 -14 10
-12 16 1 6 -2 11 -8 11 -13 0 -12 -11 3 -31 7 -9 20 -15 30 -13 9 1 17 -2 17
-8 0 -6 -7 -8 -15 -4 -8 3 -15 1 -15 -5 0 -6 -5 -7 -12 -3 -7 4 -8 3 -4 -5 4
-6 10 -9 14 -7 4 2 8 -7 8 -20 2 -19 -1 -22 -11 -14 -11 9 -12 7 -8 -9 4 -15
0 -20 -15 -18 -11 0 -18 5 -16 9 3 5 10 5 16 2 7 -4 8 -2 4 4 -8 13 -36 5 -36
-12 0 -6 -4 -5 -9 4 -6 8 -8 17 -6 20 2 4 -2 7 -10 7 -8 0 -12 -4 -9 -9 3 -4
1 -8 -5 -8 -5 0 -12 6 -14 13 -4 9 -6 9 -6 0 -1 -7 -8 -10 -16 -7 -8 4 -15 1
-15 -4 0 -6 9 -9 20 -7 11 2 23 -1 26 -7 4 -7 2 -8 -4 -4 -7 4 -12 1 -12 -6 0
-9 -3 -9 -10 2 -5 8 -10 11 -10 6 0 -5 -6 -4 -13 3 -10 8 -17 7 -25 -1 -7 -7
-12 -8 -12 -4 0 5 -7 3 -15 -4 -8 -7 -15 -23 -15 -36 0 -22 -10 -29 -33 -25
-5 1 -6 -3 -3 -8 4 -5 15 -8 25 -6 19 4 23 -17 6 -32 -4 -5 -4 -1 0 7 8 13 7
13 -8 1 -18 -15 -23 -26 -7 -16 6 3 10 1 10 -5 0 -6 5 -8 12 -4 7 4 8 3 4 -4
-4 -7 -2 -12 3 -12 6 0 11 -5 11 -11 0 -5 -3 -8 -8 -5 -4 2 -16 -3 -27 -11
-14 -11 -15 -14 -3 -10 10 4 18 -1 21 -14 5 -17 3 -18 -9 -8 -12 10 -13 9 -9
-3 4 -9 16 -20 28 -26 12 -6 16 -11 8 -11 -11 -1 -11 -4 0 -18 7 -10 10 -15 5
-11 -4 4 -14 2 -21 -5 -10 -9 -10 -14 1 -22 8 -5 17 -21 20 -35 3 -14 7 -32 8
-40 2 -8 9 -14 16 -12 6 1 10 -3 7 -10 -2 -7 -10 -12 -16 -10 -7 1 -10 -2 -6
-8 4 -7 12 -7 24 0 16 8 17 6 13 -17 -3 -18 -1 -24 7 -19 6 4 11 2 11 -4 0 -6
5 -8 13 -4 9 6 9 4 -1 -8 -9 -12 -10 -18 -2 -23 6 -4 9 -13 6 -21 -3 -8 1 -14
8 -14 17 0 29 -27 15 -35 -5 -4 -8 -2 -7 3 3 9 -2 12 -18 12 -4 0 -1 -6 6 -14
6 -8 19 -12 28 -9 14 5 15 3 5 -8 -16 -16 -17 -29 -2 -29 5 0 7 5 4 11 -4 6 2
5 14 -2 11 -8 16 -16 11 -19 -5 -3 -7 -17 -4 -30 3 -14 6 -30 6 -37 1 -7 5
-10 10 -7 7 5 12 -10 9 -28 0 -5 4 -8 10 -8 8 0 7 -6 -2 -17 -12 -14 -10 -14
14 1 15 10 27 17 28 15 10 -51 10 -54 -4 -35 -11 15 -16 16 -22 6 -5 -9 -4
-11 3 -6 7 4 12 2 12 -4 0 -6 7 -18 15 -26 11 -11 15 -12 15 -3 0 7 3 9 6 6 4
-4 1 -13 -6 -22 -10 -12 -10 -15 0 -15 7 0 10 -7 6 -16 -4 -9 -2 -13 5 -8 8 4
9 -1 4 -17 -4 -16 -3 -20 3 -11 7 10 12 6 22 -18 10 -24 17 -29 34 -24 21 6
21 6 1 -10 -11 -8 -15 -16 -10 -16 6 0 3 -5 -5 -11 -13 -9 -13 -10 0 -6 8 2
13 11 12 18 -2 8 0 10 5 6 4 -5 8 -14 8 -20 1 -7 5 -11 11 -10 5 1 10 -12 10
-28 1 -17 -2 -26 -9 -22 -6 3 -7 1 -3 -6 4 -6 11 -9 16 -6 5 3 7 -8 5 -26 -4
-29 -3 -30 14 -15 10 9 22 16 27 16 5 0 3 -4 -4 -9 -10 -6 -6 -16 18 -39 17
-18 24 -29 16 -26 -9 3 -16 1 -16 -6 0 -6 4 -9 9 -6 18 12 47 -29 47 -64 -2
-44 -12 -61 -34 -53 -14 5 -13 2 3 -11 20 -17 20 -17 -4 -12 l-23 5 23 -27
c13 -14 17 -21 8 -14 -14 10 -18 10 -23 -3 -3 -9 -2 -13 3 -10 5 3 13 1 16 -5
4 -6 3 -10 -2 -9 -21 4 -34 -2 -27 -13 4 -6 3 -8 -2 -5 -6 3 -16 -3 -23 -15
-9 -15 -10 -18 0 -13 7 5 10 4 5 -3 -3 -5 0 -13 6 -16 7 -3 4 -4 -7 -1 -18 4
-20 0 -18 -49 1 -44 -2 -54 -13 -49 -12 4 -12 8 -2 22 12 14 11 15 -5 2 -16
-12 -16 -16 -2 -31 20 -22 19 -30 -2 -30 -15 0 -16 -2 -3 -10 8 -5 11 -10 7
-10 -4 0 -2 -10 5 -23 16 -29 20 -57 9 -57 -6 0 -8 9 -6 20 4 21 -9 27 -20 10
-3 -6 -2 -10 4 -10 5 0 8 -15 6 -32 -3 -26 -2 -29 6 -16 5 9 16 15 24 12 8 -4
12 -11 9 -16 -4 -6 -10 -5 -15 3 -15 24 -9 -5 7 -31 8 -14 13 -18 12 -10 -2 8
2 16 7 17 5 2 10 -3 11 -10 3 -32 5 -37 15 -37 5 0 7 6 3 13 -5 8 -2 8 9 -2
14 -11 17 -11 17 0 0 11 2 11 9 -1 6 -8 7 -18 5 -22 -5 -7 8 -12 27 -10 3 0 4
-13 3 -29 -1 -16 2 -27 7 -24 4 3 6 13 3 23 -3 9 2 6 10 -8 17 -28 22 -53 5
-30 -9 13 -10 13 -6 0 2 -8 12 -13 23 -11 18 3 18 2 -1 -20 -11 -13 -13 -18
-5 -12 19 17 35 17 21 0 -15 -19 -1 -30 18 -14 12 9 12 6 -3 -16 l-18 -29 24
7 c18 5 20 4 8 -4 -13 -10 -13 -11 0 -11 13 0 13 -1 0 -10 -8 -5 -11 -10 -6
-10 4 0 1 -11 -7 -24 -9 -13 -13 -27 -9 -31 10 -10 9 -29 -3 -38 -6 -5 -4 -7
5 -4 8 2 15 9 15 14 0 6 3 15 7 19 4 3 5 -4 1 -17 -3 -13 -6 -36 -6 -51 0 -16
-4 -25 -10 -21 -6 3 -7 1 -3 -6 4 -6 12 -9 17 -6 5 4 9 -4 9 -17 0 -19 -2 -20
-11 -8 -9 13 -10 13 -6 0 2 -8 11 -14 21 -12 18 3 20 -7 5 -28 -9 -13 -10 -12
-5 2 3 12 1 15 -9 12 -11 -5 -12 -10 -3 -24 7 -10 15 -17 18 -15 4 2 7 -2 7
-10 0 -18 -9 -19 -27 -3 -8 7 -6 2 5 -11 17 -20 17 -23 3 -18 -17 6 -19 -8 -5
-30 5 -8 3 -13 -4 -13 -7 0 -9 -3 -6 -6 4 -4 12 -2 20 4 10 8 13 6 13 -8 0
-10 -4 -16 -8 -14 -4 3 -8 0 -8 -5 0 -6 4 -11 10 -11 5 0 7 -7 4 -15 -4 -8
-11 -12 -18 -8 -6 4 -5 -1 2 -10 8 -9 10 -22 6 -28 -4 -8 -3 -9 4 -5 7 4 12 2
12 -5 0 -8 5 -8 17 2 16 11 16 11 5 -1 -7 -8 -18 -15 -25 -15 -7 0 -11 -11 -9
-25 1 -14 3 -30 4 -37 1 -7 5 -10 10 -7 9 6 3 -79 -7 -96 -3 -5 -2 -10 3 -10
5 0 14 10 20 23 11 20 11 20 5 -7 -5 -23 -3 -27 8 -21 11 7 12 6 3 -6 -7 -8
-11 -26 -9 -41 2 -16 -2 -31 -7 -35 -7 -4 -8 -1 -3 7 5 9 4 11 -4 6 -6 -4 -9
-12 -5 -17 3 -5 10 -7 15 -4 5 4 9 -1 9 -10 0 -10 -5 -14 -12 -9 -10 5 -10 4
-1 -6 6 -7 9 -19 6 -28 -5 -11 -3 -13 7 -7 9 5 11 4 6 -4 -6 -9 -12 -9 -24 1
-15 11 -15 11 -5 -3 9 -11 9 -19 2 -26 -8 -8 -8 -13 0 -17 6 -4 11 -18 11 -32
0 -13 5 -24 11 -24 5 0 7 -5 3 -12 -5 -8 -2 -9 10 -5 10 4 15 3 11 -3 -10 -17
-24 -11 -40 18 -9 15 -13 18 -9 7 4 -11 8 -30 8 -42 1 -11 5 -19 10 -16 5 3 6
0 4 -8 -3 -8 -10 -13 -15 -12 -5 1 -10 -4 -10 -12 0 -8 3 -14 6 -13 28 3 33
-2 20 -19 -8 -9 -9 -14 -4 -11 6 4 16 -2 23 -13 10 -16 10 -21 -3 -25 -14 -6
-14 -8 1 -25 9 -11 13 -19 8 -19 -5 0 -2 -5 6 -11 12 -8 10 -9 -9 -4 -15 5
-21 3 -17 -3 3 -6 2 -13 -3 -17 -5 -3 -8 -15 -5 -28 3 -12 7 -29 8 -37 2 -8
-2 -21 -8 -29 -8 -11 -8 -13 0 -8 7 4 17 0 23 -7 9 -11 9 -16 0 -22 -8 -4 -9
-3 -5 4 4 7 2 12 -4 12 -7 0 -10 -7 -6 -15 3 -8 0 -15 -7 -15 -7 0 -8 -3 -2
-8 6 -4 15 -17 22 -28 11 -20 10 -21 -10 -16 l-22 5 20 -19 c12 -10 15 -15 8
-10 -8 5 -13 4 -13 -3 0 -7 -5 -9 -12 -5 -7 4 -8 3 -4 -5 4 -6 11 -9 16 -6 5
3 12 0 16 -6 4 -8 3 -9 -4 -5 -7 4 -12 3 -12 -3 0 -6 -6 -9 -12 -7 -7 1 -10 1
-5 -1 4 -3 7 -15 7 -27 0 -12 5 -27 11 -33 8 -8 7 -13 -2 -18 -7 -5 -10 -4 -5
3 3 6 -2 16 -13 22 -18 9 -20 8 -14 -7 3 -10 10 -23 15 -30 11 -14 1 -36 -13
-28 -5 4 -9 3 -10 -2 0 -4 -2 -16 -4 -26 -2 -12 1 -17 9 -14 15 6 18 -23 4
-40 -6 -7 -4 -14 3 -19 8 -4 9 -3 5 4 -5 8 -1 10 10 5 14 -5 13 -8 -7 -20 -13
-8 -16 -12 -6 -9 12 4 17 0 17 -16 0 -18 -2 -19 -17 -7 -16 13 -17 12 -5 -3 7
-9 21 -15 31 -13 14 3 17 -2 13 -22 -4 -20 -2 -24 9 -18 8 5 11 4 6 0 -4 -5 1
-18 10 -29 13 -15 10 -14 -10 3 -15 14 -30 21 -34 18 -3 -4 -1 -7 6 -7 9 0 11
-8 8 -21 -4 -14 2 -29 18 -45 22 -22 23 -28 3 -25 -4 0 -5 -6 -1 -14 4 -12 8
-13 19 -4 12 10 13 9 8 -5 -3 -9 -11 -16 -16 -16 -6 0 0 -9 13 -21 13 -11 18
-18 12 -14 -7 3 -13 2 -13 -4 0 -5 6 -12 13 -15 6 -4 2 -4 -10 -2 -13 2 -23 0
-23 -5 0 -5 4 -9 10 -9 5 0 7 -7 4 -15 -4 -8 -11 -12 -18 -8 -6 3 -7 2 -3 -3
5 -5 13 -10 18 -10 5 -1 14 -2 20 -3 5 0 7 -6 4 -11 -3 -6 -2 -10 4 -10 5 0
12 6 14 13 4 9 6 9 6 0 1 -19 11911 -19 11911 0 0 8 3 8 8 2 14 -21 36 -10 37
18 2 27 -7 32 -45 28 -13 -2 -13 0 -1 8 8 5 21 7 30 4 14 -4 14 -3 1 5 -8 6
-17 9 -21 6 -4 -2 -10 3 -13 12 -3 9 -12 14 -20 11 -13 -5 -56 26 -56 40 0 3
8 -1 18 -10 10 -10 22 -14 27 -10 4 5 5 2 1 -4 -5 -9 -2 -11 9 -7 17 7 15 14
-7 18 -30 4 -40 17 -26 33 12 14 11 15 -8 3 -18 -11 -24 -10 -43 9 -13 13 -28
20 -35 18 -10 -4 -13 3 -11 24 1 16 -1 26 -6 23 -5 -3 -7 -10 -4 -15 4 -5 -1
-9 -9 -9 -19 0 -20 11 -3 29 10 11 10 13 0 7 -7 -4 -13 -3 -13 2 0 6 -7 13
-16 16 -8 3 -13 2 -10 -2 3 -4 -6 -8 -19 -8 -13 0 -21 4 -19 8 3 5 10 6 15 3
5 -4 9 1 9 9 0 19 -11 20 -29 4 -10 -11 -12 -10 -9 2 2 8 -2 14 -9 13 -12 -2
-12 21 0 33 4 4 2 13 -5 21 -9 11 -14 11 -29 -3 -11 -10 -19 -13 -19 -8 0 5 9
16 20 24 19 14 19 14 -1 28 -17 12 -18 16 -8 24 11 8 10 9 -3 5 -9 -3 -22 2
-30 10 -11 15 -11 16 7 9 16 -6 18 -5 8 5 -10 10 -16 10 -25 1 -7 -7 -17 -12
-23 -12 -5 0 -3 5 5 10 11 7 12 10 2 10 -9 0 -11 7 -7 20 6 20 -2 25 -34 20
-9 -1 -12 4 -8 14 8 21 -11 30 -30 14 -14 -11 -16 -11 -8 2 14 23 14 37 0 37
-7 0 -11 -6 -8 -14 3 -7 1 -13 -5 -13 -11 0 -10 25 1 36 9 10 9 24 0 23 -19
-3 -33 2 -33 12 0 5 4 8 8 5 5 -3 9 1 9 8 0 15 -27 17 -44 4 -13 -11 -12 17 2
29 4 4 5 2 0 -6 -6 -10 -4 -12 4 -6 10 5 10 10 1 19 -8 8 -15 6 -26 -8 -16
-23 -19 -14 -3 15 9 17 7 19 -15 15 -15 -3 -26 0 -26 6 0 5 6 8 13 5 8 -3 13
5 14 22 2 23 1 24 -7 6 -6 -13 -9 -15 -9 -5 -1 13 -2 13 -11 0 -5 -8 -10 -10
-10 -4 0 5 6 16 13 23 10 12 9 13 -7 7 -13 -5 -17 -2 -13 9 4 8 0 26 -7 41 -8
14 -13 33 -11 42 2 9 4 21 4 25 1 5 6 5 13 1 6 -4 8 -3 4 4 -3 6 -2 13 4 17 6
4 8 11 4 16 -3 6 4 21 17 35 12 13 19 24 14 24 -4 0 -13 -7 -20 -16 -11 -16
-12 -16 -18 0 -5 11 -3 15 5 10 7 -5 9 0 6 14 -5 19 -4 20 15 10 12 -6 19 -7
15 -3 -4 5 -2 15 5 23 9 13 9 14 0 8 -7 -4 -13 -2 -13 3 0 6 5 11 11 11 8 0 7
5 -1 15 -11 13 -10 14 3 10 8 -4 18 -1 23 6 5 8 3 10 -6 4 -8 -5 -11 -3 -8 6
3 8 10 13 15 12 12 -2 11 70 -2 79 -6 5 -3 8 6 8 12 0 15 8 13 27 -1 15 3 34
9 42 9 12 9 13 0 7 -8 -4 -13 -1 -13 9 0 10 5 13 13 9 7 -5 6 0 -3 11 -17 21
-17 24 2 37 8 6 5 7 -12 2 -20 -6 -23 -4 -14 7 5 8 10 19 10 25 -1 14 -32 44
-46 44 -7 0 -10 6 -7 14 3 8 -2 20 -11 28 -13 11 -15 11 -7 -2 7 -12 6 -13 -7
-3 -8 7 -18 10 -21 6 -4 -3 -7 -1 -7 5 0 7 5 12 10 12 6 0 10 5 10 10 0 6 -3
9 -7 8 -5 0 -16 2 -25 6 -15 7 -15 9 0 25 9 10 21 16 26 13 5 -3 6 0 2 7 -6 9
-11 9 -21 1 -11 -9 -13 -7 -9 15 3 15 1 24 -5 21 -11 -7 -18 10 -17 44 1 29
-23 62 -38 53 -6 -4 -5 0 1 9 7 8 10 18 6 22 -4 4 0 4 9 1 14 -6 16 -2 12 21
-3 16 -11 32 -17 36 -8 5 -6 8 6 8 9 0 17 5 17 11 0 5 -4 8 -9 4 -18 -10 -21
13 -4 26 14 12 16 12 8 -1 -6 -12 -6 -13 6 -2 12 11 12 14 -1 22 -14 9 -7 15
14 11 5 -1 3 6 -5 15 -12 16 -12 17 2 12 12 -5 15 0 14 22 -1 16 -8 37 -16 47
-13 16 -11 16 16 -1 25 -16 28 -16 16 -3 -11 14 -11 17 0 17 8 1 3 8 -11 16
-15 9 -18 13 -6 9 17 -5 17 -4 5 12 -8 9 -9 14 -3 10 18 -10 26 21 12 46 -10
20 -10 21 6 8 9 -8 19 -11 23 -7 3 3 1 6 -7 6 -9 0 -10 3 -1 13 6 8 9 23 6 35
-2 12 1 22 6 22 6 0 7 5 4 10 -3 6 -1 10 6 10 7 0 9 3 6 6 -4 4 -13 1 -22 -6
-9 -7 -15 -8 -15 -2 0 6 6 12 13 15 9 3 9 8 -3 23 -14 18 -13 17 10 -1 l24
-20 -18 30 -19 30 20 -18 c16 -14 23 -15 29 -6 4 7 3 10 -3 6 -6 -4 -16 6 -22
21 -12 26 -12 26 6 10 18 -16 19 -16 19 2 0 10 -4 17 -8 14 -4 -2 -6 5 -5 15
1 19 2 19 21 3 19 -17 19 -17 1 11 -9 15 -14 27 -10 27 4 0 1 8 -6 17 -13 16
-12 17 3 4 10 -7 16 -17 13 -21 -3 -5 -2 -11 3 -14 4 -2 8 6 8 20 0 13 -5 24
-10 24 -6 0 -5 4 3 9 8 5 12 18 8 30 -6 22 8 29 17 9 3 -7 3 -1 1 14 -2 18 2
32 13 39 15 10 15 10 -1 5 -11 -4 -16 -2 -12 5 4 5 1 17 -6 25 -10 12 -10 15
1 12 7 -2 15 3 18 11 3 10 0 11 -9 5 -12 -7 -12 -5 0 9 15 19 26 23 15 5 -4
-7 -3 -8 4 -4 8 5 8 15 2 32 -9 23 -8 24 11 14 19 -11 20 -10 9 10 -6 11 -16
17 -22 14 -7 -4 -8 -3 -4 5 4 6 11 9 15 7 4 -3 13 0 21 6 12 8 12 9 -2 4 -10
-3 -20 -1 -23 4 -4 6 1 10 9 10 8 0 18 5 22 12 5 7 3 8 -6 3 -9 -5 -10 -2 -5
14 5 17 3 20 -12 15 -12 -4 -14 -3 -6 3 7 5 14 21 15 35 1 16 7 24 15 21 12
-5 12 14 -3 59 -4 15 -3 18 6 13 8 -5 11 -4 6 3 -3 5 0 13 6 15 10 4 9 6 -1 6
-11 1 -11 4 0 18 10 11 10 14 2 9 -16 -9 -17 6 -2 21 8 8 4 15 -13 28 l-23 17
23 -7 c13 -4 22 -2 22 5 0 6 -4 8 -10 5 -13 -8 -13 18 0 31 7 7 6 11 -4 11 -8
0 -13 -3 -11 -7 2 -3 -1 -12 -6 -20 -7 -11 -8 -9 -6 9 2 14 12 28 23 32 17 7
18 8 1 8 -12 1 -16 5 -11 14 6 9 4 9 -8 -1 -13 -10 -18 -10 -24 -1 -4 7 -3 9
2 6 6 -3 16 3 23 15 10 16 10 18 0 12 -9 -5 -10 -2 -5 11 5 15 4 16 -8 6 -11
-9 -16 -9 -22 0 -4 8 -3 9 4 5 7 -4 12 -2 12 3 0 6 -6 11 -12 11 -9 0 -8 4 2
11 12 9 11 10 -7 6 -13 -3 -26 0 -30 5 -3 6 -2 8 3 5 6 -3 15 3 21 13 10 15 9
18 -5 15 -9 -2 -17 -4 -17 -5 0 -1 -12 -3 -27 -4 -14 -1 -24 2 -21 7 3 5 14 7
24 4 11 -3 19 -3 19 0 0 8 -30 35 -30 26 0 -4 -5 0 -11 10 -5 9 -7 22 -3 29 4
6 3 8 -4 4 -5 -3 -12 -3 -15 1 -2 5 -2 2 0 -5 1 -7 -2 -10 -8 -6 -6 3 -9 15
-6 25 3 10 2 18 -2 17 -11 -4 -51 23 -51 34 0 6 7 5 17 -3 10 -8 6 0 -7 17
-14 17 -29 29 -34 26 -5 -3 -7 2 -3 11 4 10 2 16 -6 14 -7 -1 -11 4 -9 11 1 8
-2 11 -8 7 -12 -7 0 -29 32 -55 18 -15 18 -16 -1 -16 -11 0 -17 4 -15 8 3 4 0
8 -5 8 -6 0 -11 7 -11 16 0 8 -4 13 -8 10 -13 -8 -11 26 2 44 5 8 7 12 2 8 -5
-4 -17 -3 -27 2 -12 7 -20 6 -25 -2 -5 -7 -3 -8 6 -3 9 6 11 4 5 -5 -6 -10 -4
-12 8 -7 11 4 14 2 10 -9 -5 -13 -8 -13 -24 2 -10 9 -16 21 -13 25 3 5 -2 19
-10 31 -9 12 -16 18 -16 12 0 -5 5 -15 10 -22 7 -8 7 -9 -1 -3 -6 5 -19 7 -28
4 -9 -3 -12 -1 -6 4 6 4 11 17 13 28 2 18 2 18 -8 3 -6 -10 -16 -18 -22 -18
-6 0 -6 6 2 16 11 12 11 15 -1 12 -9 -2 -13 4 -11 17 2 15 1 17 -7 6 -5 -8 -7
-20 -4 -27 2 -6 0 -15 -5 -18 -5 -3 -9 2 -8 11 1 13 -9 19 -41 23 -23 4 -40 3
-37 -1 2 -4 -1 -11 -7 -15 -8 -5 -9 -3 -4 6 6 10 4 12 -9 7 -9 -4 -15 -3 -11
2 3 6 -2 14 -10 19 -18 10 -10 45 9 36 6 -3 0 3 -14 14 -19 16 -22 23 -12 34
6 8 8 19 4 23 -4 5 -1 5 6 0 10 -5 11 -10 3 -18 -6 -6 -11 -14 -11 -18 0 -9
27 -5 37 6 4 4 3 5 -3 2 -7 -4 -11 7 -11 33 0 22 3 37 7 35 4 -2 7 2 7 10 0 8
-4 12 -8 10 -3 -3 -12 2 -19 10 -11 13 -10 14 5 9 15 -6 16 -4 5 16 -7 12 -7
20 -2 16 6 -3 13 -2 16 3 4 5 2 12 -3 16 -5 3 -8 14 -6 25 2 11 1 19 -3 19
-26 -4 -34 4 -13 12 l24 9 -24 27 c-13 14 -19 23 -13 20 7 -4 15 0 18 9 3 8 2
12 -4 9 -6 -3 -10 -1 -10 4 0 6 5 11 11 11 6 0 3 7 -5 16 -20 19 -20 21 -1 21
8 0 12 -4 9 -9 -3 -4 0 -8 5 -8 16 0 13 20 -4 26 -11 5 -12 9 -2 19 10 11 14
9 25 -13 11 -23 12 -23 8 -4 -2 12 1 22 7 22 7 0 5 5 -3 10 -8 5 -10 10 -5 10
6 0 3 5 -5 11 -11 8 -9 9 10 3 23 -6 24 -6 10 11 -12 15 -12 17 -1 10 11 -6
13 -4 7 10 -5 15 -4 16 9 5 8 -7 12 -17 8 -24 -3 -6 -2 -7 2 -3 11 10 16 39 5
32 -9 -6 -23 25 -15 33 3 3 5 0 5 -6 0 -7 7 -12 16 -12 14 0 14 2 1 15 -23 22
-15 50 14 49 22 -2 22 -1 4 12 -11 9 -14 14 -6 14 8 0 11 8 8 20 -4 17 -3 18
16 8 20 -10 21 -10 8 5 -10 13 -11 17 -1 17 9 0 7 7 -6 22 -19 22 -19 22 0 8
18 -14 19 -13 14 7 -4 15 -2 20 7 16 8 -2 12 -14 10 -25 -3 -11 -1 -18 2 -14
10 10 14 46 5 46 -4 0 -8 11 -8 24 0 14 4 22 8 20 5 -3 6 -10 3 -15 -4 -5 -1
-9 4 -9 14 0 14 6 1 31 -13 24 -7 24 16 2 15 -16 17 -16 12 -2 -4 9 -1 23 5
30 10 10 8 10 -6 0 -15 -12 -17 -12 -11 3 6 15 18 20 37 17 5 -1 6 3 2 8 -3 6
-13 7 -23 4 -14 -5 -15 -3 -4 8 15 16 16 33 1 24 -6 -4 -5 2 3 14 7 12 17 21
22 21 4 0 2 -8 -5 -17 -13 -16 -12 -17 2 -5 17 13 15 52 -2 52 -13 0 -11 34 4
49 10 11 9 12 -1 7 -7 -4 -20 -2 -29 6 -14 10 -15 10 -9 0 11 -19 -25 -12 -42
8 -11 13 -12 11 -7 -10 5 -18 4 -21 -4 -11 -5 8 -17 16 -26 17 -15 2 -15 0 2
-19 15 -18 15 -19 1 -8 -20 15 -38 7 -38 -17 0 -10 -3 -13 -8 -7 -8 12 -32 18
-32 9 0 -4 8 -12 17 -19 15 -11 14 -12 -8 -11 -32 2 -74 -36 -65 -61 5 -16 4
-16 -10 2 -16 20 -16 20 -11 -3 5 -19 3 -21 -9 -11 -12 10 -17 9 -27 -1 -9
-10 -9 -11 1 -6 6 4 12 2 12 -3 0 -16 -20 -13 -26 3 -5 12 -8 12 -24 -2 -11
-8 -17 -19 -14 -24 9 -14 -39 -48 -53 -37 -8 7 -13 4 -18 -10 -3 -11 -15 -23
-26 -26 -10 -4 -16 -11 -13 -17 4 -7 2 -8 -5 -4 -6 4 -9 13 -5 19 3 7 -2 3
-10 -7 -20 -25 -47 -30 -39 -8 4 15 3 15 -6 2 -6 -8 -11 -11 -11 -6 0 5 -6 4
-13 -3 -10 -8 -17 -7 -28 2 -7 6 -3 -1 11 -17 l25 -29 -27 18 c-16 9 -28 13
-28 7 0 -6 -9 -14 -20 -17 -11 -4 -18 -10 -16 -14 3 -4 -4 -8 -15 -8 -18 -2
-19 0 -7 15 11 15 11 15 -3 5 -11 -9 -19 -9 -26 -2 -8 8 -13 7 -18 -2 -6 -8
-4 -10 6 -4 8 5 11 5 7 0 -4 -4 0 -15 10 -23 14 -11 12 -11 -8 1 -15 9 -24 22
-22 33 3 15 1 17 -9 7 -7 -7 -18 -13 -23 -13 -7 0 -7 3 0 8 7 5 3 15 -13 30
-12 12 -23 18 -23 13 0 -5 5 -13 10 -16 6 -3 10 -14 9 -23 0 -12 -3 -11 -9 6
-5 12 -14 22 -19 22 -6 0 -8 7 -5 15 4 9 -6 21 -25 33 -17 10 -28 22 -23 27 4
5 2 5 -4 2 -14 -8 -37 17 -26 28 4 5 3 6 -3 3 -13 -7 -36 17 -27 28 4 4 1 4
-6 0 -11 -6 -7 -15 14 -37 15 -16 22 -29 16 -29 -7 0 -12 5 -12 11 0 5 -5 7
-10 4 -6 -4 -9 -1 -8 6 2 7 -7 18 -19 24 -23 10 -32 35 -12 35 5 0 7 -6 3 -12
-5 -9 -2 -9 9 1 18 14 23 26 8 16 -5 -3 -16 2 -25 10 -8 9 -18 16 -21 15 -23
-1 -27 2 -22 20 3 11 1 23 -4 26 -5 3 -8 0 -7 -7 2 -6 -4 -14 -12 -16 -13 -4
-13 -3 0 6 8 6 11 11 6 11 -5 0 -3 6 3 14 7 9 8 17 2 20 -5 3 -12 1 -14 -4 -3
-6 -4 -5 -3 2 2 7 10 12 19 10 8 -1 19 3 23 9 4 8 3 9 -4 5 -7 -4 -12 -2 -12
4 0 6 -5 8 -11 4 -6 -3 -3 5 6 20 20 30 31 35 16 8 -7 -14 -6 -19 4 -19 7 0
11 6 8 13 -2 6 0 15 6 19 8 4 8 12 1 24 -10 20 -7 49 9 79 6 11 7 23 3 27 -4
5 0 6 9 3 11 -4 15 0 15 16 -1 11 -4 24 -9 27 -11 8 -18 51 -6 44 5 -4 7 -10
4 -15 -3 -5 -1 -11 4 -15 6 -3 8 4 6 17 -3 13 -9 24 -15 26 -5 2 -10 8 -10 13
0 6 5 7 10 4 6 -3 10 -1 10 5 0 7 -8 9 -22 4 -20 -6 -21 -5 -10 8 10 13 10 17
-4 22 -9 3 -20 4 -24 1 -5 -3 -11 -1 -14 4 -4 5 -1 13 5 17 8 4 9 3 5 -4 -5
-8 -2 -10 8 -6 12 4 12 9 3 18 -9 11 -14 10 -25 -1 -19 -19 -24 -16 -12 6 15
28 13 30 -19 26 -28 -3 -29 -2 -20 22 8 21 7 24 -4 15 -9 -8 -17 -8 -27 0 -12
8 -12 9 3 4 20 -6 23 9 3 17 -7 3 -19 0 -26 -6 -10 -9 -11 -9 -6 1 4 7 2 12
-6 12 -8 0 -9 3 -3 8 6 4 11 14 13 22 3 12 1 13 -9 3 -16 -16 -29 -17 -29 -2
0 5 4 8 9 5 5 -3 12 1 15 9 5 13 2 14 -17 3 -12 -7 -30 -11 -39 -9 -10 1 -18
-3 -18 -10 0 -7 -3 -9 -6 -6 -4 4 -1 15 7 24 7 10 9 15 5 11 -5 -4 -16 -2 -25
5 -14 11 -14 10 -2 -5 12 -16 11 -18 -4 -18 -12 0 -16 -6 -12 -20 3 -11 1 -18
-4 -14 -5 3 -9 11 -9 19 0 18 -21 24 -44 13 -12 -7 -16 -7 -12 0 4 6 -2 16
-11 21 -15 9 -13 10 10 7 16 -3 25 -1 22 5 -4 5 -10 7 -15 4 -5 -3 -15 1 -23
9 -8 8 -18 12 -22 8 -5 -4 -5 -2 -1 5 3 6 -1 16 -10 21 -15 8 -15 10 0 15 10
4 15 3 12 -2 -8 -12 31 -44 46 -38 8 3 6 6 -5 6 -10 1 -15 6 -12 11 4 6 1 9
-6 8 -7 -2 -13 4 -14 12 0 9 -8 14 -20 12 -16 -3 -17 -1 -6 11 14 18 -2 33
-31 29 -10 -2 -18 1 -18 7 0 6 -6 8 -14 5 -7 -3 -21 2 -30 11 -14 14 -16 15
-16 1 0 -10 -6 -13 -17 -9 -12 5 -14 3 -8 -8 7 -12 6 -12 -7 -1 -13 10 -18 10
-24 1 -5 -8 -3 -9 6 -4 8 5 11 4 7 -2 -4 -5 -19 -9 -34 -7 -15 1 -34 2 -41 3
-7 1 -11 5 -8 10 3 4 -6 13 -19 19 -20 9 -23 9 -18 -3 3 -8 9 -12 14 -9 5 3 9
0 9 -5 0 -16 -11 -13 -36 10 -16 15 -24 17 -29 8 -5 -7 -4 -10 2 -6 5 3 10 -1
10 -9 0 -10 -4 -11 -11 -4 -5 5 -22 10 -37 10 -15 0 -31 5 -34 10 -3 6 -12 10
-18 9 -9 0 -9 -2 1 -6 18 -7 15 -21 -5 -19 -10 0 -17 -5 -15 -12 1 -8 -2 -11
-8 -7 -5 3 -19 1 -30 -5 -11 -6 -20 -8 -20 -6 0 3 12 12 28 20 15 8 22 15 17
16 -18 0 -55 -31 -55 -46 0 -8 -5 -12 -10 -9 -7 4 -6 14 1 28 10 22 10 22 -6
2 -9 -11 -23 -19 -31 -17 -8 2 -14 -2 -14 -8 0 -5 5 -10 10 -10 6 0 10 -5 10
-11 0 -8 -6 -7 -17 2 -15 12 -16 12 -10 -3 10 -27 -1 -21 -17 10 -9 15 -15 20
-16 12 0 -13 -1 -13 -10 0 -8 12 -10 12 -10 1 0 -10 -3 -11 -13 -2 -10 8 -14
7 -14 -4 0 -8 5 -11 11 -8 6 3 8 2 3 -2 -11 -12 -58 -12 -53 0 2 5 9 9 15 7 7
-1 10 2 7 7 -7 11 -66 -16 -66 -30 0 -5 -5 -9 -11 -9 -5 0 -8 4 -4 9 3 5 1 13
-5 16 -6 4 -9 1 -8 -6 2 -7 -6 -13 -17 -13 -11 0 -24 -6 -28 -14 -7 -11 -12
-11 -25 0 -15 12 -16 11 -3 -5 12 -15 12 -20 1 -30 -10 -9 -11 -9 -6 1 4 6 3
12 -2 12 -11 0 -26 -30 -23 -45 2 -5 -1 -6 -5 -2 -11 11 -14 38 -3 31 5 -3 9
-1 9 4 0 6 -7 12 -15 16 -8 3 -14 0 -12 -6 1 -6 -4 -13 -12 -16 -10 -3 -12 0
-8 11 3 9 1 19 -5 23 -6 4 -8 3 -5 -2 3 -6 2 -16 -4 -24 -6 -10 -9 -11 -9 -2
0 6 -5 12 -11 12 -5 0 -7 -4 -4 -10 3 -5 1 -10 -4 -10 -12 0 -15 26 -3 33 4 2
1 2 -6 1 -7 -2 -20 5 -29 16 -13 15 -20 17 -30 8 -11 -8 -12 -7 -7 6 4 9 3 16
-2 15 -19 -3 -34 1 -34 10 0 5 10 7 23 5 20 -4 20 -4 2 5 -11 4 -23 7 -27 4
-5 -2 -8 1 -8 6 0 6 -5 11 -11 11 -5 0 -8 -4 -4 -9 3 -5 1 -12 -4 -15 -5 -4
-8 2 -6 11 2 10 4 18 5 18 8 0 5 32 -4 32 -6 0 -19 4 -28 8 -12 5 -18 3 -18
-6 0 -7 -7 -3 -16 9 -13 19 -18 21 -32 10 -14 -11 -14 -9 1 8 17 20 14 34 -7
34 -6 0 -4 -5 4 -10 13 -8 13 -10 -2 -10 -9 0 -19 9 -23 20 -3 11 -9 19 -13
19 -20 -3 -32 2 -27 11 3 6 1 10 -4 10 -6 0 -11 -4 -11 -10 0 -5 -5 -10 -11
-10 -5 0 -7 5 -4 10 3 6 1 10 -5 10 -6 0 -9 4 -6 8 2 4 -4 8 -14 8 -14 0 -16
-3 -8 -13 8 -11 7 -12 -7 -7 -13 5 -16 4 -10 -5 6 -10 3 -11 -14 -2 -24 13
-28 23 -6 15 8 -4 15 -2 15 3 0 5 -9 9 -20 10 -16 1 -19 -3 -16 -23 3 -13 1
-22 -4 -19 -4 3 -11 -1 -14 -7 -3 -7 -3 -2 0 12 4 17 2 21 -4 12 -12 -17 -22
-17 -34 0 -7 9 -8 6 -5 -10 4 -15 1 -22 -6 -19 -7 3 -11 9 -10 15 3 15 -40 1
-55 -17 -10 -14 -12 -14 -10 -1 2 8 -2 14 -9 13 -7 -2 -10 4 -7 15 5 16 5 16
-9 0 -12 -15 -16 -16 -35 -3 -13 10 -23 12 -27 5 -6 -10 -5 -11 14 -14 5 0 13
-4 17 -8 8 -8 -31 -2 -46 7 -6 4 -8 12 -4 18 3 7 0 5 -8 -4 -7 -9 -19 -14 -27
-11 -7 2 -18 -2 -23 -9 -8 -11 -9 -10 -4 4 7 22 -30 63 -38 41 -3 -7 0 -13 6
-11 6 1 12 -4 14 -11 1 -7 0 -8 -3 -2 -3 7 -10 7 -21 -2 -10 -8 -13 -9 -9 -1
4 6 3 15 -3 18 -7 5 -8 11 -1 19 7 8 5 15 -8 23 -14 9 -18 8 -18 -3 0 -7 5
-10 10 -7 6 3 7 1 3 -5 -12 -19 -26 -14 -26 11 0 18 -2 19 -10 7 -8 -13 -10
-13 -10 2 0 12 -7 15 -30 12 -18 -3 -30 -1 -30 6 0 6 -5 8 -11 5 -6 -5 -4 -12
8 -20 10 -7 15 -17 10 -21 -4 -4 -7 -2 -7 5 0 7 -4 9 -10 6 -5 -3 -10 -1 -10
4 0 6 -13 11 -30 11 -17 0 -30 5 -30 12 0 7 -7 3 -15 -9 -18 -26 -49 -20 -42
8 3 11 0 22 -5 26 -6 3 -8 2 -5 -3 3 -6 2 -16 -4 -24 -7 -12 -9 -10 -9 8 0 24
-10 28 -28 10 -7 -7 -12 -9 -12 -4 0 13 27 35 35 28 5 -4 5 -2 1 5 -4 7 -14 9
-24 6 -15 -6 -16 -5 -2 12 9 11 10 16 3 11 -8 -4 -13 -1 -13 9 0 9 5 13 10 10
6 -3 10 -1 10 5 0 7 -8 9 -20 5 -11 -4 -20 -2 -20 4 0 6 6 11 13 12 6 0 2 5
-10 11 -25 12 -32 31 -8 22 8 -4 15 -1 15 6 0 6 -5 8 -10 5 -6 -3 -14 5 -20
19 -5 14 -15 26 -21 26 -9 0 -9 3 0 14 13 16 4 49 -11 40 -6 -4 -5 -10 3 -15
7 -4 10 -11 6 -16 -13 -12 -27 19 -17 37 6 12 5 17 -5 17 -8 0 -12 -4 -9 -9 3
-4 1 -8 -5 -8 -5 0 -9 9 -8 19 1 12 7 17 17 15 8 -3 5 1 -7 7 -20 11 -29 39
-24 72 0 4 -6 7 -14 7 -13 0 -13 -3 -3 -20 9 -14 9 -23 2 -30 -8 -8 -10 -4
-10 12 1 15 -4 22 -14 20 -12 -3 -11 0 3 14 16 17 16 19 -5 32 l-23 13 24 -5
c22 -5 23 -4 8 11 -13 13 -19 14 -31 3 -11 -8 -16 -9 -16 -1 0 6 5 11 11 11 6
0 1 13 -9 28 -16 22 -18 32 -10 47 11 20 11 20 -13 0 -13 -11 -18 -13 -11 -5
15 18 16 34 0 24 -7 -5 -8 -3 -4 5 5 7 14 10 20 8 7 -3 13 1 13 7 0 8 -12 12
-31 10 -17 -1 -25 0 -18 3 15 6 17 93 1 93 -6 0 -7 5 -2 13 11 18 13 38 2 31
-12 -7 -11 10 1 22 7 7 6 11 -3 11 -15 0 -19 -26 -6 -43 5 -7 3 -11 -6 -11 -8
0 -12 4 -9 9 3 4 0 8 -7 8 -8 0 -8 4 1 15 7 8 9 15 5 15 -4 0 -1 7 6 17 16 19
16 23 -3 34 -11 7 -10 11 2 20 13 9 13 10 0 6 -8 -2 -14 -11 -14 -20 1 -9 -4
-18 -11 -21 -15 -5 -9 30 9 53 8 11 8 13 -1 7 -8 -4 -13 -2 -13 6 0 11 -2 11
-9 0 -4 -8 -8 8 -9 40 -3 78 -7 97 -24 118 -25 28 -36 54 -30 69 2 8 0 11 -5
8 -5 -3 -10 0 -10 8 0 8 4 12 9 9 4 -3 8 0 8 5 0 6 -4 11 -8 11 -4 0 -8 9 -8
20 0 11 4 20 8 20 5 0 1 11 -7 24 -12 18 -13 26 -4 32 7 4 9 3 6 -3 -4 -6 0
-16 8 -23 10 -9 15 -9 15 -1 0 6 -4 11 -8 11 -15 0 -9 34 7 49 9 7 4 6 -11 -3
-24 -14 -27 -14 -22 -1 4 8 10 15 15 15 4 0 14 10 20 23 12 22 12 22 -10 3
-11 -11 -24 -16 -28 -13 -3 4 -1 7 6 7 7 0 9 5 5 13 -4 6 -4 9 0 5 5 -4 14 -1
21 5 11 10 10 16 -3 31 -10 11 -11 16 -4 12 6 -4 12 -2 12 3 0 6 5 11 11 11 8
0 7 -6 -2 -17 -11 -15 -11 -16 1 -5 9 8 13 27 11 53 -2 28 1 39 8 35 6 -4 11
-2 11 3 0 6 -5 11 -11 11 -8 0 -8 4 0 13 7 9 7 17 0 24 -6 6 -5 10 5 10 8 0
13 -8 11 -18 -2 -10 0 -21 4 -23 11 -7 9 48 -3 56 -7 5 -4 8 6 8 9 0 20 5 24
12 5 8 2 9 -9 5 -9 -3 -19 -3 -21 2 -3 4 1 8 9 9 8 1 21 3 29 4 7 1 13 11 12
22 -1 12 4 20 12 18 6 -1 12 2 12 8 0 13 -6 13 -33 -1 l-22 -12 20 24 c11 13
27 29 35 36 13 11 12 12 -4 6 -13 -4 -17 -3 -12 5 4 7 2 12 -6 12 -8 0 -6 5 5
11 9 6 14 15 11 21 -5 7 -2 8 6 3 10 -6 12 -4 7 9 -5 11 -3 15 5 10 8 -5 9 -2
4 11 -6 16 -4 16 11 4 15 -12 16 -12 10 5 -6 14 -4 17 9 12 14 -5 15 -4 4 9
-7 8 -16 12 -21 9 -5 -3 -9 0 -9 6 0 7 6 10 14 7 21 -8 39 16 24 31 -9 9 -9
12 3 13 7 1 18 1 23 0 5 -1 4 5 -4 13 -15 19 -24 21 -14 4 4 -7 3 -8 -5 -4 -6
4 -9 12 -5 17 3 5 9 7 14 4 5 -3 12 6 16 20 3 14 11 22 18 19 6 -3 2 2 -9 12
-20 16 -20 16 0 12 17 -4 21 0 23 26 1 17 9 36 16 41 10 8 11 16 5 28 -13 22
-5 22 17 0 17 -17 17 -17 11 -1 -3 10 -2 20 3 23 6 4 10 11 10 18 0 6 -7 2
-15 -9 -15 -18 -15 -18 -8 0 5 14 3 17 -7 11 -9 -5 -11 -4 -6 4 4 6 12 9 17 6
5 -4 9 -1 9 5 0 6 5 8 10 5 6 -3 10 -1 10 5 0 6 6 8 13 4 9 -5 9 -4 0 6 -9 10
-5 18 15 37 15 14 22 22 15 19 -6 -4 -15 -1 -19 5 -4 8 -3 9 4 5 7 -4 12 -2
12 4 0 6 5 8 12 4 8 -5 9 -2 5 9 -4 11 1 21 15 28 16 9 19 8 13 -2 -5 -8 -4
-10 4 -5 6 4 9 11 6 16 -3 5 4 14 15 20 17 9 19 14 9 26 -10 12 -9 13 6 8 14
-6 16 -4 10 6 -5 9 -4 11 3 6 11 -7 17 6 13 28 -1 5 5 4 13 -3 11 -10 14 -9
12 1 -1 7 -5 19 -10 27 -5 8 2 6 19 -5 l28 -18 -13 24 c-12 22 -12 24 2 12 13
-10 15 -8 12 15 -2 16 -1 22 2 15 3 -6 10 -9 15 -6 6 4 6 10 -1 18 -12 16 25
70 42 60 6 -4 5 2 -1 15 -10 17 -9 21 4 21 8 0 15 4 15 9 0 6 -9 8 -19 6 -14
-2 -18 1 -15 10 4 10 0 12 -15 8 -11 -3 -18 -10 -14 -16 4 -6 1 -7 -7 -2 -19
12 -60 13 -67 1 -3 -5 -1 -6 4 -3 6 4 13 1 16 -7 4 -10 0 -12 -14 -9 -10 3
-26 0 -34 -7 -12 -10 -15 -10 -15 0 0 8 -3 10 -6 7 -4 -4 -1 -14 7 -24 9 -11
10 -14 2 -9 -7 4 -13 2 -13 -3 0 -6 -5 -11 -11 -11 -5 0 -7 5 -3 12 5 7 3 8
-5 4 -7 -5 -10 -14 -7 -22 3 -8 2 -13 -2 -13 -19 3 -33 -2 -27 -10 3 -5 1 -12
-4 -15 -5 -4 -13 -1 -17 5 -5 8 -3 9 6 4 9 -5 11 -4 6 4 -11 17 -26 3 -19 -17
6 -15 4 -15 -9 -4 -14 11 -16 10 -11 -9 4 -15 3 -20 -5 -15 -7 4 -12 2 -12 -4
0 -6 -5 -8 -10 -5 -6 4 -7 11 -4 17 4 7 2 8 -4 4 -9 -5 -7 -14 5 -33 l17 -26
-24 13 -25 13 19 -22 c17 -19 18 -21 3 -15 -10 3 -17 3 -16 -2 4 -21 -2 -25
-18 -13 -10 9 -14 9 -10 2 5 -7 -3 -18 -20 -28 -15 -9 -20 -14 -10 -11 9 3 17
1 17 -4 0 -9 -15 -14 -33 -11 -4 1 -3 -7 2 -18 9 -17 8 -19 -14 -16 -14 1 -28
-2 -32 -8 -4 -6 -1 -7 7 -2 10 6 12 4 7 -9 -4 -10 -7 -20 -7 -22 0 -3 -6 -2
-12 2 -9 5 -8 2 1 -9 12 -15 12 -17 -4 -11 -12 5 -16 4 -12 -3 4 -6 -1 -13
-11 -15 -9 -3 -24 -18 -32 -34 -20 -39 -36 -55 -46 -46 -5 4 -2 -1 5 -10 10
-13 10 -18 2 -18 -7 0 -9 -5 -6 -10 4 -6 3 -10 -2 -9 -28 5 -39 -4 -41 -32 -1
-17 3 -38 10 -47 12 -13 11 -14 -9 -2 -12 8 -19 18 -16 24 3 5 1 6 -5 2 -13
-8 -8 -42 9 -63 10 -11 10 -14 -2 -11 -8 2 -13 -3 -11 -10 1 -8 -2 -11 -8 -7
-5 3 -10 1 -10 -4 0 -6 -4 -11 -10 -11 -5 0 -7 8 -4 18 5 13 4 14 -4 3 -5 -7
-16 -18 -23 -23 -11 -7 -9 -8 5 -6 10 2 21 -3 23 -10 3 -7 1 -12 -4 -11 -18 3
-33 -2 -33 -11 0 -5 8 -7 18 -4 14 5 14 4 2 -4 -9 -7 -19 -7 -26 -2 -12 11
-24 3 -24 -14 0 -6 4 -4 10 4 6 10 9 6 8 -17 -1 -22 -5 -30 -15 -26 -8 3 -13
2 -12 -3 1 -5 1 -18 0 -28 -2 -32 -14 -9 -14 26 0 18 -2 25 -4 16 -3 -10 -9
-18 -14 -18 -6 0 -7 -4 -4 -10 3 -5 2 -10 -3 -10 -5 0 -9 11 -9 25 0 15 4 22
11 18 8 -4 8 -3 0 6 -6 7 -20 13 -32 14 -12 0 -19 3 -17 5 2 3 0 13 -6 24 -7
14 -7 23 1 33 8 9 8 15 0 20 -6 3 -8 11 -4 16 3 6 -5 8 -20 5 -15 -3 -24 -1
-21 5 4 5 11 7 16 4 5 -4 9 -1 9 5 0 6 5 8 12 4 7 -4 8 -3 4 4 -4 6 -14 8 -23
5 -12 -5 -14 -3 -8 7 5 8 1 18 -10 27 -24 17 -29 43 -7 36 15 -4 15 -3 2 6
-21 15 -30 14 -30 -6 0 -23 -9 -12 -14 18 -2 13 -5 26 -6 29 -2 3 -2 9 -1 14
4 19 -10 56 -20 56 -8 0 -7 -5 1 -15 9 -11 10 -19 3 -26 -8 -8 -13 -7 -18 2
-6 8 -4 10 5 4 8 -5 11 -3 8 6 -3 8 -11 14 -18 14 -7 0 -17 10 -21 23 -6 16
-5 21 2 16 7 -4 10 -1 7 7 -3 8 -15 13 -27 13 -16 -1 -19 2 -12 9 13 13 15 30
2 23 -5 -3 -12 1 -15 10 -4 10 -2 13 6 8 7 -4 8 -3 4 5 -4 7 -17 9 -29 6 -12
-4 -17 -3 -12 2 18 14 11 48 -10 50 -20 3 -20 3 0 -6 11 -5 14 -10 7 -10 -7
-1 -10 -7 -7 -13 4 -7 0 -5 -9 5 -8 11 -12 25 -9 33 3 8 0 14 -7 14 -6 0 -8 5
-4 11 5 8 1 8 -14 0 -30 -16 -37 -13 -15 7 10 9 13 13 5 8 -10 -8 -13 -5 -10
9 2 13 -3 20 -17 22 l-20 3 20 -9 c11 -5 14 -10 7 -10 -7 -1 -10 -7 -7 -13 4
-7 0 -5 -9 5 -8 11 -12 25 -9 33 7 20 -7 17 -24 -3 -9 -11 -8 -6 2 11 9 16 13
26 7 22 -14 -8 -43 4 -36 15 3 5 1 9 -5 9 -5 0 -13 -4 -16 -10 -3 -5 -11 -10
-18 -10 -6 0 -3 6 7 13 15 11 16 17 5 40 -7 15 -17 27 -23 26 -24 -3 -37 2
-31 11 3 6 -1 10 -11 10 -14 0 -15 2 -3 17 12 14 12 16 -1 8 -35 -21 -55 -12
-51 23 1 6 -3 12 -9 12 -6 0 -8 -4 -5 -10 3 -5 1 -10 -4 -10 -6 0 -11 5 -11
11 0 5 -5 7 -12 3 -8 -5 -9 -2 -5 10 4 10 3 15 -3 11 -6 -3 -10 -1 -10 5 0 7
-8 9 -20 5 -12 -4 -20 -2 -20 5 0 6 5 8 12 4 7 -4 8 -3 4 4 -4 7 -16 17 -26
22 -16 8 -18 8 -14 -5 3 -8 11 -12 17 -8 6 4 7 1 2 -6 -5 -9 -11 -9 -17 -3 -6
6 -18 8 -27 5 -9 -3 -12 -1 -6 4 6 4 11 13 12 20 4 17 -25 9 -43 -13 -15 -18
-15 -18 -5 3 14 28 14 54 0 31 -11 -20 -29 -24 -29 -7 0 5 4 8 8 5 5 -3 9 1 9
9 0 13 -4 12 -19 -2 -20 -18 -25 -4 -6 15 9 9 9 12 0 12 -7 0 -12 -4 -12 -10
0 -5 -12 -10 -26 -10 -14 0 -23 4 -19 10 3 6 -1 10 -10 10 -9 0 -14 4 -11 9 3
5 -1 12 -10 15 -10 4 -13 2 -8 -7 4 -6 -7 3 -24 21 -26 28 -34 32 -52 22 -11
-6 -20 -7 -19 -3 4 23 -4 30 -28 27 -15 -1 -31 2 -35 8 -5 9 -11 8 -22 -1 -9
-8 -16 -10 -16 -6 0 4 8 14 18 21 14 10 15 15 4 26 -11 11 -12 10 -7 -4 7 -17
-17 -20 -32 -3 -5 4 -1 5 7 0 8 -5 12 -4 8 0 -5 5 -19 9 -32 11 -19 2 -24 -1
-19 -14 4 -13 2 -13 -9 2 -9 12 -27 19 -47 19 -17 0 -31 4 -31 9 0 5 5 6 10 3
6 -3 10 -2 10 4 0 16 -18 22 -23 9 -4 -9 -8 -10 -14 -2 -4 6 -16 13 -25 17
-13 4 -16 2 -11 -11 3 -9 -4 -3 -16 13 -11 17 -21 25 -21 18 0 -7 -7 -10 -15
-7 -8 4 -12 11 -8 17 3 6 1 7 -6 3 -8 -5 -9 -12 -2 -20 7 -8 5 -12 -9 -12 -10
0 -17 3 -15 6 2 3 -6 12 -18 20 -19 11 -20 11 -10 -1 10 -12 2 -14 -47 -14
-32 0 -56 3 -54 7 2 4 -1 10 -7 14 -7 4 -9 3 -6 -3 4 -6 -1 -17 -10 -24 -9 -8
-14 -9 -10 -3 4 7 0 15 -9 18 -12 4 -15 2 -10 -9 4 -13 1 -12 -20 2 -22 14
-27 14 -35 2 -8 -13 -13 -6 -10 16 1 6 -7 -1 -18 -15 l-20 -25 4 25 c4 21 2
23 -8 9 -15 -19 -51 -34 -41 -16 5 8 2 7 -9 -2 -9 -7 -18 -11 -18 -7 -1 3 -2
10 -3 15 0 5 -4 13 -8 17 -4 3 -5 -3 -3 -16z m275 -24 c0 -3 -4 -8 -10 -11 -5
-3 -10 -1 -10 4 0 6 5 11 10 11 6 0 10 -2 10 -4z m357 -71 c0 -8 -4 -12 -9 -9
-4 3 -8 9 -8 15 0 5 4 9 8 9 5 0 9 -7 9 -15z m182 -81 c-6 -8 -14 -14 -16 -14
-3 0 0 7 7 15 12 15 4 21 -23 16 -5 -1 -6 3 -2 9 4 7 13 7 26 -1 16 -8 18 -13
8 -25z m-1223 -96 c-3 -13 -5 -27 -5 -33 -1 -5 -5 -3 -10 4 -6 9 -6 22 0 33
13 25 20 23 15 -4z m1519 -47 c3 -5 0 -13 -6 -17 -7 -4 -9 -3 -5 4 3 5 0 13
-6 15 -9 4 -10 6 -1 6 6 1 14 -3 18 -8z m175 -110 c7 -15 7 -19 -5 -17 -20 3
-28 13 -20 25 9 15 13 14 25 -8z m150 -161 c0 -5 -5 -10 -11 -10 -5 0 -7 5 -4
10 3 6 8 10 11 10 2 0 4 -4 4 -10z m774 1 c-9 -9 -34 -9 -34 -1 0 5 9 8 20 7
10 -1 17 -3 14 -6z m-34 -35 c0 -3 -4 -8 -10 -11 -5 -3 -10 -1 -10 4 0 6 5 11
10 11 6 0 10 -2 10 -4z m-104 -118 c4 -6 3 -8 -4 -4 -6 3 -18 -4 -26 -16 -9
-12 -16 -18 -16 -14 0 9 29 46 36 46 2 0 6 -5 10 -12z m-361 -266 c-3 -3 -11
0 -18 7 -9 10 -8 11 6 5 10 -3 15 -9 12 -12z m425 -36 c0 -3 -4 -8 -10 -11 -5
-3 -10 -1 -10 4 0 6 5 11 10 11 6 0 10 -2 10 -4z m-3382 -151 c0 -30 -7 -28
-13 4 -2 11 0 21 4 21 5 0 9 -11 9 -25z m44 -37 c-9 -9 -15 -9 -24 1 -11 11
-10 13 5 8 10 -4 17 -2 17 5 0 6 3 8 7 5 4 -4 1 -13 -5 -19z m27 -51 c10 3 21
1 24 -4 3 -5 -7 -8 -21 -7 -19 0 -27 6 -28 20 -1 13 0 14 3 3 3 -11 11 -15 22
-12z m3221 9 c0 -3 -4 -8 -10 -11 -5 -3 -10 -1 -10 4 0 6 5 11 10 11 6 0 10
-2 10 -4z m-3256 -22 c3 -8 2 -12 -4 -9 -6 3 -10 10 -10 16 0 14 7 11 14 -7z
m6 -36 c0 -6 -6 -5 -15 2 -8 7 -15 14 -15 16 0 2 7 1 15 -2 8 -4 15 -11 15
-16z m-4026 -46 c3 -5 -1 -9 -9 -9 -8 0 -12 4 -9 9 3 4 7 8 9 8 2 0 6 -4 9 -8z
m106 -13 c0 -5 -4 -9 -8 -9 -5 0 -9 7 -9 15 0 8 4 12 9 9 4 -3 8 -9 8 -15z
m-113 -15 c-3 -3 -12 -4 -19 -1 -8 3 -5 6 6 6 11 1 17 -2 13 -5z m4113 -8 c0
-3 -4 -8 -10 -11 -5 -3 -10 -1 -10 4 0 6 5 11 10 11 6 0 10 -2 10 -4z m-4210
-250 c0 -2 -7 -7 -16 -10 -8 -3 -12 -2 -9 4 6 10 25 14 25 6z m4310 -46 c0 -5
-5 -10 -11 -10 -5 0 -7 5 -4 10 3 6 8 10 11 10 2 0 4 -4 4 -10z m-3968 -34 c9
0 16 -5 15 -11 -1 -5 4 -9 11 -7 8 1 11 -2 7 -9 -5 -8 -10 -8 -18 0 -17 17
-50 14 -44 -4 4 -8 1 -17 -5 -21 -7 -5 -8 -2 -3 6 6 10 4 12 -11 6 -15 -6 -17
-5 -6 5 6 7 12 20 12 29 0 9 -3 11 -8 5 -4 -5 -14 -11 -22 -13 -10 -1 -9 3 5
13 11 9 26 12 35 9 8 -4 23 -7 32 -8z m3985 8 c-3 -3 -12 -4 -19 -1 -8 3 -5 6
6 6 11 1 17 -2 13 -5z m-3657 -8 c0 -2 -7 -7 -16 -10 -8 -3 -12 -2 -9 4 6 10
25 14 25 6z m-394 -84 c-17 -16 -18 -16 -5 5 7 12 15 20 18 17 3 -2 -3 -12
-13 -22z m441 12 c-3 -3 -12 -4 -19 -1 -8 3 -5 6 6 6 11 1 17 -2 13 -5z m6597
-45 c-3 -5 0 -17 6 -28 5 -11 6 -22 2 -25 -8 -5 -10 1 -14 44 -1 11 -6 20 -10
20 -4 0 -8 5 -8 11 0 8 5 8 15 -1 8 -7 12 -16 9 -21z m-7387 1 c-1 -21 -10
-18 -13 5 -1 8 2 15 6 15 5 0 8 -9 7 -20z m762 -4 c9 -11 9 -16 -1 -22 -7 -4
-10 -4 -6 1 4 4 3 14 -3 22 -6 7 -9 13 -6 13 2 0 10 -6 16 -14z m3636 -24 c-3
-3 -11 0 -18 7 -9 10 -8 11 6 5 10 -3 15 -9 12 -12z m-3669 -20 c-17 -16 -18
-16 -5 5 7 12 15 20 18 17 3 -2 -3 -12 -13 -22z m3666 -1 c-17 -11 -17 -22 0
-32 11 -7 10 -10 -1 -21 -9 -8 -11 -9 -7 -1 3 6 2 14 -3 17 -7 5 -8 23 -2 44
1 1 7 2 14 2 9 0 9 -2 -1 -9z m3 -139 c-3 -3 -11 0 -18 7 -9 10 -8 11 6 5 10
-3 15 -9 12 -12z m-3725 4 c0 -3 -4 -8 -10 -11 -5 -3 -10 -1 -10 4 0 6 5 11
10 11 6 0 10 -2 10 -4z m3732 -43 c-6 -2 -9 -10 -6 -15 4 -7 2 -8 -5 -4 -13 9
-5 26 12 25 9 0 8 -2 -1 -6z m-4372 -63 c-13 -8 -12 -10 3 -10 18 0 23 -15 8
-24 -5 -3 -16 5 -25 19 -16 24 -16 25 6 25 19 0 20 -2 8 -10z m45 0 c3 -5 1
-10 -4 -10 -6 0 -11 5 -11 10 0 6 2 10 4 10 3 0 8 -4 11 -10z m445 -18 c0 -5
-7 -9 -15 -9 -8 0 -12 4 -9 9 3 4 9 8 15 8 5 0 9 -4 9 -8z m3877 -77 c0 -8 -4
-12 -9 -9 -5 3 -6 10 -3 15 9 13 12 11 12 -6z m-4377 -5 c0 -5 -5 -10 -11 -10
-5 0 -7 5 -4 10 3 6 8 10 11 10 2 0 4 -4 4 -10z m658 -45 c3 -3 -4 -4 -16 -2
-12 2 -24 6 -28 10 -4 3 4 4 16 2 12 -2 25 -7 28 -10z m127 5 c3 -5 11 -10 16
-10 6 0 7 4 4 10 -4 6 1 7 11 3 15 -6 15 -7 0 -15 -11 -6 -22 -6 -30 1 -7 6
-16 8 -19 4 -4 -3 -7 -1 -7 5 0 15 17 16 25 2z m-224 -17 c12 -16 12 -17 -2
-6 -9 7 -20 9 -24 5 -5 -4 -5 -1 -1 6 9 16 11 15 27 -5z m-103 -48 c-3 -3 -9
2 -12 12 -6 14 -5 15 5 6 7 -7 10 -15 7 -18z m3917 -13 c-3 -3 -11 0 -18 7 -9
10 -8 11 6 5 10 -3 15 -9 12 -12z m-4484 -15 c-10 -9 -11 -8 -5 6 3 10 9 15
12 12 3 -3 0 -11 -7 -18z m4481 -6 c-17 -10 -17 -22 -1 -32 9 -5 10 -11 2 -21
-16 -19 -16 -30 -1 -40 10 -8 10 -9 -2 -5 -17 4 -21 26 -8 44 5 6 5 14 -1 17
-7 5 -8 23 -2 44 1 1 7 2 14 2 9 0 9 -2 -1 -9z m0 -118 c-6 -2 -9 -10 -6 -15
4 -7 2 -8 -5 -4 -13 9 -5 26 12 25 9 0 8 -2 -1 -6z m-4588 -31 c3 -5 -1 -9 -9
-9 -8 0 -12 4 -9 9 3 4 7 8 9 8 2 0 6 -4 9 -8z m956 -48 c-15 -17 -17 -17 -23
-1 -3 8 3 14 15 14 16 2 17 -1 8 -13z m-40 -4 c0 -5 -4 -10 -10 -10 -5 0 -10
5 -10 10 0 6 5 10 10 10 6 0 10 -4 10 -10z m-83 -45 c0 -8 -4 -12 -9 -9 -5 3
-6 10 -3 15 9 13 12 11 12 -6z m558 6 c3 -5 2 -12 -3 -15 -5 -3 -9 1 -9 9 0
17 3 19 12 6z m-651 -47 c3 -8 2 -12 -4 -9 -6 3 -10 10 -10 16 0 14 7 11 14
-7z m-24 -14 c0 -5 -4 -10 -10 -10 -5 0 -10 5 -10 10 0 6 5 10 10 10 6 0 10
-4 10 -10z m-746 -39 c4 -5 -3 -7 -14 -4 -23 6 -26 13 -6 13 8 0 17 -4 20 -9z
m8098 -125 c10 6 11 4 0 -7 -10 -11 -15 -10 -30 6 -15 17 -15 18 0 6 9 -7 23
-9 30 -5z m-8162 -23 c0 -3 -3 -3 -7 0 -3 4 -11 3 -17 -3 -8 -6 -12 -3 -12 10
0 15 4 16 18 9 10 -5 18 -13 18 -16z m930 7 c0 -5 -5 -10 -11 -10 -5 0 -7 5
-4 10 3 6 8 10 11 10 2 0 4 -4 4 -10z m3791 -7 c13 -16 12 -17 -3 -4 -10 7
-18 15 -18 17 0 8 8 3 21 -13z m-3700 -56 c-10 -9 -11 -8 -5 6 3 10 9 15 12
12 3 -3 0 -11 -7 -18z m7590 -14 c13 -16 12 -17 -3 -4 -10 7 -18 15 -18 17 0
8 8 3 21 -13z m-8646 -3 c3 -5 1 -10 -4 -10 -6 0 -11 5 -11 10 0 6 2 10 4 10
3 0 8 -4 11 -10z m8880 1 c3 -5 2 -12 -3 -15 -5 -3 -9 1 -9 9 0 17 3 19 12 6z
m-7790 -30 c3 -5 0 -13 -6 -17 -7 -4 -9 -3 -5 4 3 5 0 13 -6 15 -9 4 -10 6 -1
6 6 1 14 -3 18 -8z m7925 -45 c0 -2 -9 -2 -20 1 -11 3 -20 9 -20 15 0 5 9 4
20 -2 11 -6 20 -12 20 -14z m-4250 0 c0 -3 -4 -8 -10 -11 -5 -3 -10 -1 -10 4
0 6 5 11 10 11 6 0 10 -2 10 -4z m5326 -28 c4 -7 4 -10 -1 -6 -4 4 -14 0 -22
-10 -13 -15 -13 -15 -3 6 12 25 16 27 26 10z m-582 -40 c-3 -4 -9 -8 -15 -8
-5 0 -9 4 -9 8 0 5 7 9 15 9 8 0 12 -4 9 -9z m-104 -8 c0 -5 -4 -10 -10 -10
-5 0 -10 5 -10 10 0 6 5 10 10 10 6 0 10 -4 10 -10z m-340 -10 c0 -5 -2 -10
-4 -10 -3 0 -8 5 -11 10 -3 6 -1 10 4 10 6 0 11 -4 11 -10z m64 -29 c-2 -2
-10 1 -17 7 -8 7 -17 9 -21 5 -4 -4 -4 0 -1 9 6 15 8 15 24 0 10 -9 16 -19 15
-21z m-4383 12 c13 -16 12 -17 -3 -4 -10 7 -18 15 -18 17 0 8 8 3 21 -13z
m4616 2 c4 -4 2 -5 -4 -1 -8 4 -13 2 -14 -6 0 -9 -2 -10 -5 -1 -3 7 -12 9 -20
6 -7 -3 -11 -10 -7 -16 4 -6 1 -7 -7 -2 -10 6 -9 11 4 21 19 13 41 13 53 -1z
m-8409 -13 c-10 -2 -18 -8 -18 -14 0 -6 -3 -8 -6 -5 -11 10 17 38 30 30 7 -5
5 -9 -6 -11z m96 -30 c3 -5 -1 -9 -9 -9 -8 0 -12 4 -9 9 3 4 7 8 9 8 2 0 6 -4
9 -8z m-943 -21 c4 7 11 10 16 6 9 -9 -17 -28 -29 -21 -4 3 -8 11 -7 17 0 8 3
7 6 -2 4 -11 7 -11 14 0z m4654 0 c3 -5 2 -12 -3 -15 -5 -3 -9 1 -9 9 0 17 3
19 12 6z m5429 1 c3 -5 -1 -9 -9 -9 -8 0 -12 4 -9 9 3 4 7 8 9 8 2 0 6 -4 9
-8z m-10061 -77 c-3 -8 -10 -15 -15 -15 -7 0 -6 5 1 13 6 8 7 18 3 22 -4 5 -2
5 5 1 7 -4 10 -13 6 -21z m1442 -35 c-3 -5 -12 -7 -20 -3 -21 7 -19 13 6 13
11 0 18 -4 14 -10z m-1475 -30 c6 -11 8 -20 6 -20 -3 0 -10 9 -16 20 -6 11 -8
20 -6 20 3 0 10 -9 16 -20z m1465 -10 c3 -5 1 -10 -4 -10 -6 0 -11 5 -11 10 0
6 2 10 4 10 3 0 8 -4 11 -10z m-1484 -19 c-7 -5 -11 -14 -7 -20 5 -7 1 -9 -9
-5 -12 5 -13 9 -4 20 6 8 17 14 23 14 6 0 5 -4 -3 -9z m4689 -31 c0 -5 -5 -10
-11 -10 -5 0 -7 5 -4 10 3 6 8 10 11 10 2 0 4 -4 4 -10z m-5100 -20 c0 -5 -2
-10 -4 -10 -3 0 -8 5 -11 10 -3 6 -1 10 4 10 6 0 11 -4 11 -10z m274 2 c3 -5
-1 -9 -9 -9 -8 0 -12 4 -9 9 3 4 7 8 9 8 2 0 6 -4 9 -8z m1596 -47 c-6 -8 -9
-19 -5 -26 6 -8 2 -8 -14 0 -11 7 -21 14 -21 17 0 3 5 2 10 -1 6 -3 13 1 16 9
3 9 11 16 16 16 6 0 5 -6 -2 -15z m3230 -49 c0 -3 -4 -8 -10 -11 -5 -3 -10 -1
-10 4 0 6 5 11 10 11 6 0 10 -2 10 -4z m-5130 -76 c0 -5 -5 -10 -11 -10 -5 0
-7 5 -4 10 3 6 8 10 11 10 2 0 4 -4 4 -10z m5124 -39 c-2 -3 -12 3 -22 13 -16
17 -16 18 5 5 12 -7 20 -15 17 -18z m1 -50 c3 -5 2 -12 -3 -15 -5 -3 -9 1 -9
9 0 17 3 19 12 6z m-3450 -41 c3 -5 1 -10 -4 -10 -6 0 -11 5 -11 10 0 6 2 10
4 10 3 0 8 -4 11 -10z m10125 0 c0 -5 -5 -10 -11 -10 -5 0 -7 5 -4 10 3 6 8
10 11 10 2 0 4 -4 4 -10z m15 -58 c-3 -3 -11 0 -18 7 -9 10 -8 11 6 5 10 -3
15 -9 12 -12z m-3281 -34 c-5 -16 -3 -19 7 -12 12 6 12 5 1 -8 -10 -13 -10
-17 3 -22 9 -3 13 -2 10 3 -3 5 -1 12 4 15 4 3 8 -4 7 -17 -1 -13 4 -21 12
-19 6 1 12 -2 12 -8 0 -5 -3 -10 -7 -10 -5 0 -15 -4 -23 -10 -12 -7 -11 -12 5
-32 17 -20 18 -21 2 -8 -16 12 -19 12 -17 -1 5 -29 0 -41 -14 -36 -8 3 -17 1
-20 -6 -3 -7 -3 -1 0 13 3 16 2 21 -4 12 -5 -7 -16 -10 -25 -6 -10 3 -17 1
-17 -6 0 -6 4 -9 9 -5 5 3 12 2 15 -3 2 -4 -6 -8 -20 -8 -18 0 -23 4 -19 17 3
10 1 20 -4 24 -6 3 -8 0 -5 -8 3 -8 1 -17 -3 -20 -5 -3 -10 7 -11 23 -1 16 2
31 8 35 6 4 4 15 -6 31 -9 13 -14 27 -10 31 3 3 6 1 6 -5 0 -7 8 -12 18 -12
13 0 14 2 4 9 -7 4 -15 20 -16 34 -2 15 1 24 6 21 5 -3 7 -13 6 -21 -2 -9 2
-18 9 -20 7 -3 10 3 7 14 -3 11 3 23 16 31 12 7 20 8 20 2 0 -5 7 -10 16 -10
14 0 14 3 4 15 -11 13 -10 14 4 9 11 -4 15 -13 10 -26z m3080 17 c-10 -8 -23
-14 -29 -14 -5 0 -1 6 9 14 11 8 24 15 30 15 5 0 1 -7 -10 -15z m-6504 -27 c0
-6 -6 -5 -15 2 -8 7 -15 14 -15 16 0 2 7 1 15 -2 8 -4 15 -11 15 -16z m5760 7
c0 -12 -19 -12 -23 0 -4 9 -1 12 9 8 7 -3 14 -7 14 -8z m630 -45 c0 -5 -8 -10
-17 -10 -15 0 -16 2 -3 10 19 12 20 12 20 0z m-3068 -44 c7 4 8 2 4 -5 -9 -13
-26 -5 -25 12 0 9 2 8 6 -1 2 -6 10 -9 15 -6z m-6832 0 c0 -3 -4 -8 -10 -11
-5 -3 -10 -1 -10 4 0 6 5 11 10 11 6 0 10 -2 10 -4z m9390 -21 c37 -19 37 -22
4 -22 -16 0 -21 2 -14 7 8 5 3 11 -16 18 -16 6 -23 11 -16 11 7 1 26 -6 42
-14z m-10810 -29 c0 -2 -8 -10 -17 -17 -16 -13 -17 -12 -4 4 13 16 21 21 21
13z m1321 -149 c-10 -9 -11 -8 -5 6 3 10 9 15 12 12 3 -3 0 -11 -7 -18z
m-1506 -88 c-4 -5 -12 -9 -18 -8 -9 0 -8 2 1 6 6 2 9 10 6 15 -4 7 -2 8 5 4 6
-4 9 -12 6 -17z m-5 -23 c0 -3 -4 -8 -10 -11 -5 -3 -10 -1 -10 4 0 6 5 11 10
11 6 0 10 -2 10 -4z m1650 -29 c0 -7 -4 -6 -10 3 -8 12 -10 12 -10 1 0 -8 -3
-12 -6 -8 -9 9 6 28 17 22 5 -4 9 -12 9 -18z m3 -37 c9 -11 13 -20 7 -20 -5 0
-14 9 -20 20 -6 11 -9 20 -8 20 2 0 11 -9 21 -20z m9961 -118 c2 -4 -4 -9 -15
-9 -11 -1 -17 2 -14 8 7 11 22 12 29 1z m-11614 -62 c0 -5 -2 -10 -4 -10 -3 0
-8 5 -11 10 -3 6 -1 10 4 10 6 0 11 -4 11 -10z m11617 3 c-4 -3 -3 -11 3 -17
6 -8 3 -12 -10 -12 -15 0 -16 4 -9 18 5 10 13 18 16 18 3 0 3 -3 0 -7z m-6562
-23 c3 -6 -1 -7 -9 -4 -18 7 -21 14 -7 14 6 0 13 -4 16 -10z m-5035 -9 c0 -6
-4 -12 -8 -15 -5 -3 -9 1 -9 9 0 8 4 15 9 15 4 0 8 -4 8 -9z m6 -36 c-1 -8 -5
-17 -8 -21 -5 -4 -4 16 1 34 3 9 9 -1 7 -13z m11594 -29 c0 -3 -4 -8 -10 -11
-5 -3 -10 -1 -10 4 0 6 5 11 10 11 6 0 10 -2 10 -4z m-6870 -54 c-5 -2 -6 -11
-3 -19 5 -13 2 -12 -13 3 -18 17 -18 20 -4 31 11 9 17 9 22 0 4 -7 3 -13 -2
-15z m-3127 -27 c-3 -8 -10 -15 -15 -15 -7 0 -6 5 1 13 6 8 7 18 3 22 -4 5 -2
5 5 1 7 -4 10 -13 6 -21z m9972 -34 c3 -5 2 -12 -3 -15 -5 -3 -9 1 -9 9 0 17
3 19 12 6z m118 -86 c-3 -9 -8 -14 -10 -11 -3 3 -2 9 2 15 9 16 15 13 8 -4z
m-11537 -70 c-12 -9 -12 -13 0 -30 8 -10 14 -24 14 -29 -1 -13 -28 35 -28 48
0 5 -6 12 -13 16 -7 5 -1 7 15 7 21 -2 23 -4 12 -12z m11810 -137 c3 -4 -1 -5
-10 -4 -8 1 -18 5 -22 8 -3 4 1 5 10 4 8 -1 18 -5 22 -8z m-11729 -14 c-8 -8
22 -64 43 -81 13 -11 13 -12 -3 -7 -31 11 -65 94 -39 94 3 0 2 -3 -1 -6z
m1443 -45 c0 -6 -4 -7 -10 -4 -5 3 -10 11 -10 16 0 6 5 7 10 4 6 -3 10 -11 10
-16z m1827 4 c-9 -2 -14 -9 -11 -15 4 -7 2 -8 -5 -4 -15 10 -4 26 17 25 15 -1
15 -2 -1 -6z m-3166 -200 c-12 -20 -14 -14 -5 12 4 9 9 14 11 11 3 -2 0 -13
-6 -23z m11803 -84 c-8 -14 -21 -11 -21 5 0 8 6 12 14 9 7 -3 10 -9 7 -14z
m-8 -45 c1 -9 0 -13 -4 -10 -3 4 -7 14 -8 22 -1 9 0 13 4 10 3 -4 7 -14 8 -22z
m-8625 -57 c-6 -8 -9 -16 -6 -19 3 -3 -4 -13 -14 -22 -11 -10 -17 -25 -15 -34
4 -13 3 -12 -6 2 -10 15 -9 20 1 27 8 5 10 9 5 9 -5 0 1 11 14 25 25 26 41 35
21 12z m8624 -17 c3 -5 1 -10 -4 -10 -6 0 -11 5 -11 10 0 6 2 10 4 10 3 0 8
-4 11 -10z m-10292 -87 c-3 -7 -6 -13 -8 -13 -2 0 -5 6 -8 13 -3 8 1 14 8 14
7 0 11 -6 8 -14z m1537 -13 c0 -5 -5 -10 -11 -10 -5 0 -7 5 -4 10 3 6 8 10 11
10 2 0 4 -4 4 -10z m-40 -34 c0 -3 -4 -8 -10 -11 -5 -3 -10 -1 -10 4 0 6 5 11
10 11 6 0 10 -2 10 -4z m-223 -121 c0 -8 -4 -12 -9 -9 -5 3 -6 10 -3 15 9 13
12 11 12 -6z m8947 -71 c3 -8 2 -12 -4 -9 -6 3 -10 10 -10 16 0 14 7 11 14 -7z
m-10114 -54 c0 -5 -4 -10 -10 -10 -5 0 -10 5 -10 10 0 6 5 10 10 10 6 0 10 -4
10 -10z m10100 0 c0 -5 -5 -10 -11 -10 -5 0 -7 5 -4 10 3 6 8 10 11 10 2 0 4
-4 4 -10z m-10089 -37 c13 -16 12 -17 -3 -4 -10 7 -18 15 -18 17 0 8 8 3 21
-13z m954 -43 c-3 -5 -12 -10 -18 -10 -7 0 -6 4 3 10 19 12 23 12 15 0z
m-2395 -82 c0 -4 -4 -8 -9 -8 -6 0 -12 4 -15 8 -3 5 1 9 9 9 8 0 15 -4 15 -9z
m2277 -7 c0 -11 -5 -18 -9 -15 -4 3 -5 11 -1 19 7 21 12 19 10 -4z m-713 -27
c3 -8 2 -12 -4 -9 -6 3 -10 10 -10 16 0 14 7 11 14 -7z m9904 -89 c-3 -3 -9 2
-12 12 -6 14 -5 15 5 6 7 -7 10 -15 7 -18z m-9917 -58 c-10 -9 -11 -8 -5 6 3
10 9 15 12 12 3 -3 0 -11 -7 -18z m9889 3 c0 -5 -5 -10 -11 -10 -5 0 -7 5 -4
10 3 6 8 10 11 10 2 0 4 -4 4 -10z m-11404 -19 c-4 -5 0 -12 6 -14 7 -3 2 -6
-11 -6 -20 -1 -21 1 -11 14 14 16 25 21 16 6z m11388 -111 c-6 -6 -10 -3 -10
10 0 13 4 16 10 10 7 -7 7 -13 0 -20z m-11368 -3 c1 -9 -2 -15 -7 -11 -5 3 -7
9 -4 14 3 4 0 11 -5 13 -6 3 -5 4 1 3 7 -1 13 -10 15 -19z m2171 -52 c6 -14 7
-23 2 -19 -13 8 -31 44 -22 44 4 0 13 -11 20 -25z m-2170 -121 c-3 -3 -12 -4
-19 -1 -8 3 -5 6 6 6 11 1 17 -2 13 -5z m2219 -26 c12 -14 13 -18 3 -10 -9 6
-18 10 -21 7 -2 -3 -5 2 -5 10 0 19 0 19 23 -7z m-2202 -79 c-3 -5 -10 -7 -15
-3 -5 3 -7 10 -3 15 3 5 10 7 15 3 5 -3 7 -10 3 -15z m2206 -41 c0 -6 -6 -5
-15 2 -8 7 -15 14 -15 16 0 2 7 1 15 -2 8 -4 15 -11 15 -16z m-2212 -29 c-10
-7 -10 -9 2 -10 8 -1 20 0 25 1 6 1 6 -2 2 -6 -10 -10 -37 -14 -38 -6 0 4 -2
15 -4 24 -2 11 2 15 12 11 12 -5 12 -7 1 -14z m1732 -69 c0 -5 -5 -10 -11 -10
-5 0 -7 5 -4 10 3 6 8 10 11 10 2 0 4 -4 4 -10z m9700 -34 c0 -2 -8 -10 -17
-17 -16 -13 -17 -12 -4 4 13 16 21 21 21 13z m-9176 -48 c-3 -5 -9 -6 -14 -3
-4 3 -10 0 -12 -7 -3 -8 -6 -7 -10 3 -4 11 1 15 17 15 13 0 21 -4 19 -8z
m9225 -15 c2 -2 -3 -3 -11 -3 -9 0 -19 7 -22 16 -6 15 -4 15 11 3 10 -7 20
-15 22 -16z m-9362 -52 c-17 -21 -16 -39 3 -51 8 -5 11 -10 5 -10 -29 0 -43
36 -22 56 12 12 8 26 -5 18 -7 -4 -8 -3 -4 4 4 6 13 9 22 5 13 -5 13 -8 1 -22z
m9370 -16 c0 -8 -4 -15 -9 -15 -10 0 -11 14 -1 23 9 10 10 9 10 -8z m-11442
-24 c3 -5 2 -12 -3 -15 -5 -3 -9 1 -9 9 0 17 3 19 12 6z m11440 -41 c-1 -11
-4 -22 -7 -25 -4 -5 -4 34 1 43 4 8 7 -1 6 -18z m-11465 -40 c-10 -6 -11 -10
-2 -10 6 0 12 -5 12 -11 0 -8 -5 -8 -15 1 -16 13 -11 30 8 30 7 0 6 -4 -3 -10z
m1885 -20 c-3 -5 -13 -6 -21 -3 -12 4 -13 8 -3 14 15 9 32 2 24 -11z m9567
-56 c-6 -12 -9 -7 -9 16 0 23 3 28 9 16 5 -9 5 -23 0 -32z m-24 -29 c-3 -3 -9
2 -12 12 -6 14 -5 15 5 6 7 -7 10 -15 7 -18z m-9474 -11 c3 -8 2 -12 -4 -9 -6
3 -10 10 -10 16 0 14 7 11 14 -7z m-1930 -43 c4 -5 -3 -7 -14 -4 -23 6 -26 13
-6 13 8 0 17 -4 20 -9z m11354 -110 c10 -6 9 -11 -4 -22 -16 -12 -17 -12 -11
3 3 9 1 19 -6 22 -7 2 -7 5 -2 5 6 0 16 -3 23 -8z m-11343 -51 c3 -5 0 -7 -9
-4 -15 6 -17 -11 -3 -33 5 -8 4 -13 -2 -13 -6 0 -12 5 -12 10 -1 6 -2 16 -3
23 -4 25 16 38 29 17z m11322 4 c-3 -3 -12 -4 -19 -1 -8 3 -5 6 6 6 11 1 17
-2 13 -5z m0 -48 c-3 -8 1 -17 9 -20 8 -3 14 -11 14 -18 0 -9 -3 -9 -8 -2 -4
6 -16 16 -27 22 -11 6 -14 12 -7 12 7 0 10 5 7 10 -3 6 -1 10 5 10 7 0 10 -6
7 -14z m7 -54 c3 -5 -1 -9 -9 -9 -8 0 -12 4 -9 9 3 4 7 8 9 8 2 0 6 -4 9 -8z
m119 -137 c-3 -9 -8 -14 -10 -11 -3 3 -2 9 2 15 9 16 15 13 8 -4z m-11456 -41
c-3 -3 -12 -4 -19 -1 -8 3 -5 6 6 6 11 1 17 -2 13 -5z m11536 -59 c-3 -9 -8
-14 -10 -11 -3 3 -2 9 2 15 9 16 15 13 8 -4z m40 -40 c-7 -21 -12 -19 -10 4 0
11 5 18 9 15 4 -3 5 -11 1 -19z m77 -79 c8 -11 9 -16 1 -16 -6 0 -11 5 -11 11
0 5 -6 7 -12 3 -7 -4 -10 -4 -6 1 4 4 0 14 -10 22 -15 13 -15 13 4 4 11 -5 26
-17 34 -25z m35 -46 c3 -5 1 -10 -4 -10 -6 0 -11 5 -11 10 0 6 2 10 4 10 3 0
8 -4 11 -10z m90 -100 c3 -5 1 -10 -4 -10 -6 0 -11 5 -11 10 0 6 2 10 4 10 3
0 8 -4 11 -10z m-11769 -43 c1 -9 -2 -15 -7 -11 -5 3 -7 9 -4 14 3 4 0 11 -5
13 -6 3 -5 4 1 3 7 -1 13 -10 15 -19z m11954 -117 c0 -5 -5 -10 -11 -10 -5 0
-7 5 -4 10 3 6 8 10 11 10 2 0 4 -4 4 -10z m-11929 -53 c-10 -9 -11 -8 -5 6 3
10 9 15 12 12 3 -3 0 -11 -7 -18z m11975 -11 c2 -14 0 -15 -12 -5 -17 14 -19
32 -2 27 6 -2 12 -12 14 -22z"/>
<path d="M8635 6600 c-3 -5 -1 -10 4 -10 6 0 11 5 11 10 0 6 -2 10 -4 10 -3 0
-8 -4 -11 -10z"/>
<path d="M8710 6540 c0 -5 5 -10 11 -10 5 0 7 5 4 10 -3 6 -8 10 -11 10 -2 0
-4 -4 -4 -10z"/>
<path d="M6510 10419 c0 -5 5 -7 10 -4 6 3 10 8 10 11 0 2 -4 4 -10 4 -5 0
-10 -5 -10 -11z"/>
<path d="M6153 10385 c0 -8 4 -12 9 -9 5 3 6 10 3 15 -9 13 -12 11 -12 -6z"/>
<path d="M6820 10365 c0 -7 30 -13 34 -7 3 4 -4 9 -15 9 -10 1 -19 0 -19 -2z"/>
<path d="M6950 10320 c0 -5 5 -12 10 -15 6 -3 10 0 10 7 0 10 3 9 11 -2 8 -12
10 -12 7 -1 -4 15 -38 25 -38 11z"/>
<path d="M5758 10093 c6 -2 9 -10 6 -15 -4 -7 -2 -8 5 -4 13 9 5 26 -12 25 -9
0 -8 -2 1 -6z"/>
<path d="M5687 10020 c-10 -12 -22 -18 -27 -15 -6 3 -10 1 -10 -4 0 -6 3 -11
6 -11 13 0 42 21 48 35 7 20 4 19 -17 -5z"/>
<path d="M8761 9981 c-8 -14 -7 -20 2 -24 7 -3 13 5 13 19 2 29 -2 30 -15 5z"/>
<path d="M8793 9975 c0 -8 4 -12 9 -9 5 3 6 10 3 15 -9 13 -12 11 -12 -6z"/>
<path d="M5636 9968 c3 -5 10 -6 15 -3 13 9 11 12 -6 12 -8 0 -12 -4 -9 -9z"/>
<path d="M7580 9960 c8 -5 20 -10 25 -10 6 0 3 5 -5 10 -8 5 -19 10 -25 10 -5
0 -3 -5 5 -10z"/>
<path d="M7755 9780 c-3 -5 -1 -10 4 -10 6 0 11 5 11 10 0 6 -2 10 -4 10 -3 0
-8 -4 -11 -10z"/>
<path d="M8586 9747 c3 -10 9 -15 12 -12 3 3 0 11 -7 18 -10 9 -11 8 -5 -6z"/>
<path d="M7826 9664 c-8 -22 -4 -25 11 -9 7 8 9 16 4 19 -5 3 -12 -1 -15 -10z"/>
<path d="M7890 9589 c0 -5 -6 -7 -12 -3 -10 6 -10 5 -1 -8 7 -8 11 -18 8 -21
-3 -4 -2 -5 2 -2 8 7 15 45 8 45 -3 0 -5 -5 -5 -11z"/>
<path d="M8210 9579 c0 -5 5 -7 10 -4 6 3 10 8 10 11 0 2 -4 4 -10 4 -5 0 -10
-5 -10 -11z"/>
<path d="M8150 9439 c0 -5 5 -7 10 -4 6 3 10 8 10 11 0 2 -4 4 -10 4 -5 0 -10
-5 -10 -11z"/>
<path d="M7970 9382 c0 -5 7 -17 15 -28 15 -19 15 -19 8 1 -6 18 -5 19 13 5
19 -14 19 -14 0 8 -19 22 -36 29 -36 14z"/>
<path d="M8325 9240 c-3 -5 -1 -10 4 -10 6 0 11 5 11 10 0 6 -2 10 -4 10 -3 0
-8 -4 -11 -10z"/>
<path d="M5189 9123 c-13 -16 -12 -17 4 -4 9 7 17 15 17 17 0 8 -8 3 -21 -13z"/>
<path d="M1055 9061 c-3 -5 -2 -12 3 -15 5 -3 9 1 9 9 0 17 -3 19 -12 6z"/>
<path d="M1146 9038 c3 -5 10 -6 15 -3 13 9 11 12 -6 12 -8 0 -12 -4 -9 -9z"/>
<path d="M5140 8830 c-12 -7 -10 -9 7 -7 12 0 19 5 17 9 -6 10 -6 10 -24 -2z"/>
<path d="M897 8803 c3 -7 6 -13 8 -13 2 0 5 6 8 13 3 8 -1 14 -8 14 -7 0 -11
-6 -8 -14z"/>
<path d="M1380 8730 c-8 -5 -12 -12 -9 -15 4 -3 12 1 19 10 14 17 11 19 -10 5z"/>
<path d="M1570 8709 c0 -5 5 -7 10 -4 6 3 10 8 10 11 0 2 -4 4 -10 4 -5 0 -10
-5 -10 -11z"/>
<path d="M1630 8656 c0 -8 4 -17 8 -20 4 -2 8 4 8 15 0 10 -4 19 -8 19 -4 0
-8 -6 -8 -14z"/>
<path d="M8207 8644 c-8 -9 11 -44 24 -44 6 0 3 7 -5 16 -9 8 -14 20 -11 25 7
10 1 12 -8 3z"/>
<path d="M8260 8461 c0 -6 4 -12 8 -15 5 -3 9 1 9 9 0 8 -4 15 -9 15 -4 0 -8
-4 -8 -9z"/>
<path d="M1446 8311 c-3 -5 1 -11 9 -14 9 -4 12 -1 8 9 -6 16 -10 17 -17 5z"/>
<path d="M8340 8179 c0 -5 5 -7 10 -4 6 3 10 8 10 11 0 2 -4 4 -10 4 -5 0 -10
-5 -10 -11z"/>
<path d="M8367 8094 c-8 -8 22 -54 35 -54 5 0 2 7 -6 16 -9 8 -14 19 -11 24 6
10 -10 22 -18 14z"/>
<path d="M2156 7982 c-3 -5 1 -9 9 -9 8 0 12 4 9 9 -3 4 -7 8 -9 8 -2 0 -6 -4
-9 -8z"/>
<path d="M653 7962 c-8 -5 -7 -11 2 -19 10 -10 14 -9 19 2 6 17 -5 26 -21 17z"/>
<path d="M2113 7929 c11 -17 14 -16 20 7 1 4 -6 8 -15 10 -14 2 -15 -1 -5 -17z"/>
<path d="M1710 7881 c0 -6 4 -12 8 -15 5 -3 9 1 9 9 0 8 -4 15 -9 15 -4 0 -8
-4 -8 -9z"/>
<path d="M2035 7844 c-10 -8 -13 -14 -6 -14 7 0 9 -4 6 -10 -3 -5 -2 -10 2
-10 12 0 34 38 25 44 -4 2 -16 -2 -27 -10z"/>
<path d="M1520 7780 c-13 -8 -13 -10 2 -10 9 0 20 5 23 10 8 13 -5 13 -25 0z"/>
<path d="M1940 7656 c0 -8 4 -17 9 -20 5 -4 7 3 4 14 -6 23 -13 26 -13 6z"/>
<path d="M535 7600 c-3 -5 -2 -10 4 -10 5 0 13 5 16 10 3 6 2 10 -4 10 -5 0
-13 -4 -16 -10z"/>
<path d="M8646 7581 c-4 -5 -2 -12 3 -15 5 -4 12 -2 15 3 4 5 2 12 -3 15 -5 4
-12 2 -15 -3z"/>
<path d="M1560 7555 c-7 -9 -8 -15 -2 -15 5 0 12 7 16 15 3 8 4 15 2 15 -2 0
-9 -7 -16 -15z"/>
<path d="M2225 7551 c-3 -5 0 -13 6 -17 7 -4 9 -3 5 4 -3 5 0 13 6 15 9 4 10
6 1 6 -6 1 -14 -3 -18 -8z"/>
<path d="M9110 7498 c0 -4 4 -8 9 -8 6 0 12 4 15 8 3 5 -1 9 -9 9 -8 0 -15 -4
-15 -9z"/>
<path d="M2186 7461 c-4 -5 -2 -12 3 -15 5 -4 12 -2 15 3 4 5 2 12 -3 15 -5 4
-12 2 -15 -3z"/>
<path d="M9474 7449 c-10 -17 9 -30 26 -18 12 9 12 10 -4 5 -13 -5 -17 -2 -12
9 6 17 0 20 -10 4z"/>
<path d="M10281 7414 c0 -11 3 -14 6 -6 3 7 2 16 -1 19 -3 4 -6 -2 -5 -13z"/>
<path d="M10535 7400 c3 -5 8 -10 11 -10 2 0 4 5 4 10 0 6 -5 10 -11 10 -5 0
-7 -4 -4 -10z"/>
<path d="M10575 7400 c3 -5 8 -10 11 -10 2 0 4 5 4 10 0 6 -5 10 -11 10 -5 0
-7 -4 -4 -10z"/>
<path d="M5230 7379 c0 -5 5 -7 10 -4 6 3 10 8 10 11 0 2 -4 4 -10 4 -5 0 -10
-5 -10 -11z"/>
<path d="M10404 7382 c4 -3 14 -7 22 -8 9 -1 13 0 10 4 -4 3 -14 7 -22 8 -9 1
-13 0 -10 -4z"/>
<path d="M468 7373 c7 -3 16 -2 19 1 4 3 -2 6 -13 5 -11 0 -14 -3 -6 -6z"/>
<path d="M1546 7371 c-3 -5 3 -11 15 -14 16 -4 18 -3 8 9 -13 16 -16 17 -23 5z"/>
<path d="M1666 7348 c3 -5 10 -6 15 -3 13 9 11 12 -6 12 -8 0 -12 -4 -9 -9z"/>
<path d="M2105 7291 c-3 -5 -2 -12 3 -15 5 -3 9 1 9 9 0 17 -3 19 -12 6z"/>
<path d="M1568 7278 c14 -14 45 -20 37 -8 -2 4 -14 10 -26 13 -16 4 -19 3 -11
-5z"/>
<path d="M10805 7240 c3 -5 8 -10 11 -10 2 0 4 5 4 10 0 6 -5 10 -11 10 -5 0
-7 -4 -4 -10z"/>
<path d="M421 7213 c8 -10 18 -21 22 -24 5 -3 8 -9 8 -13 -3 -22 0 -26 12 -15
10 10 7 18 -16 40 -32 32 -47 39 -26 12z"/>
<path d="M10878 7208 c-7 -17 15 -19 29 -3 4 4 3 5 -4 2 -6 -4 -13 -2 -15 5
-3 8 -6 6 -10 -4z"/>
<path d="M340 7092 c9 -19 30 -23 30 -5 0 4 -3 3 -7 0 -3 -4 -12 1 -20 11 -13
15 -13 15 -3 -6z"/>
<path d="M197 7086 c-3 -8 -2 -18 3 -21 13 -8 20 9 11 24 -6 10 -10 9 -14 -3z"/>
<path d="M514 7016 c20 -16 37 -13 35 7 0 9 -2 9 -6 0 -3 -10 -10 -10 -26 -2
-21 10 -21 9 -3 -5z"/>
<path d="M5230 6899 c0 -5 5 -7 10 -4 6 3 10 8 10 11 0 2 -4 4 -10 4 -5 0 -10
-5 -10 -11z"/>
<path d="M11043 6883 c4 -6 2 -13 -3 -15 -15 -5 -22 -56 -9 -64 8 -5 9 -3 4 6
-4 7 -2 16 6 21 11 7 11 9 1 9 -7 0 -10 5 -7 10 4 6 10 8 15 5 11 -7 7 22 -5
32 -4 4 -5 3 -2 -4z"/>
<path d="M5242 6675 c4 -4 3 -14 -4 -22 -8 -11 -7 -12 6 -7 19 7 21 20 4 30
-7 4 -10 4 -6 -1z"/>
<path d="M215 6589 c-4 -6 -4 -13 -1 -16 3 -4 6 -1 6 6 0 7 5 9 12 5 7 -4 8
-3 4 4 -9 15 -13 15 -21 1z"/>
<path d="M5230 6560 c0 -5 5 -10 11 -10 5 0 7 5 4 10 -3 6 -8 10 -11 10 -2 0
-4 -4 -4 -10z"/>
<path d="M11595 6540 c3 -5 1 -10 -4 -10 -6 0 -11 -5 -11 -11 0 -8 5 -8 15 1
17 14 20 30 4 30 -5 0 -7 -4 -4 -10z"/>
<path d="M11526 6493 c-6 -14 -5 -15 5 -6 7 7 10 15 7 18 -3 3 -9 -2 -12 -12z"/>
<path d="M5205 6450 c-3 -6 1 -7 9 -4 18 7 21 14 7 14 -6 0 -13 -4 -16 -10z"/>
<path d="M306 6408 c3 -5 10 -6 15 -3 13 9 11 12 -6 12 -8 0 -12 -4 -9 -9z"/>
<path d="M5110 6406 c0 -2 7 -7 16 -10 8 -3 12 -2 9 4 -6 10 -25 14 -25 6z"/>
<path d="M11844 6294 c2 -10 8 -20 14 -22 17 -5 15 13 -2 27 -12 10 -14 9 -12
-5z"/>
<path d="M150 6280 c-9 -6 -10 -10 -3 -10 6 0 15 5 18 10 8 12 4 12 -15 0z"/>
<path d="M5036 6218 c3 -5 10 -6 15 -3 13 9 11 12 -6 12 -8 0 -12 -4 -9 -9z"/>
<path d="M95 6100 c4 -6 11 -8 16 -5 14 9 11 15 -7 15 -8 0 -12 -5 -9 -10z"/>
<path d="M107 6003 c3 -7 8 -13 12 -13 4 0 8 6 8 13 0 8 -6 14 -13 14 -7 0
-10 -6 -7 -14z"/>
<path d="M4713 5995 c0 -8 4 -12 9 -9 5 3 6 10 3 15 -9 13 -12 11 -12 -6z"/>
<path d="M4694 5969 c3 -15 36 -21 36 -7 0 6 -6 8 -14 5 -8 -3 -17 -2 -20 4
-2 5 -3 4 -2 -2z"/>
<path d="M4610 5966 c0 -2 7 -7 16 -10 8 -3 12 -2 9 4 -6 10 -25 14 -25 6z"/>
<path d="M4580 5955 c0 -5 5 -17 10 -25 5 -8 10 -10 10 -5 0 6 -5 17 -10 25
-5 8 -10 11 -10 5z"/>
<path d="M4737 5946 c-4 -10 -3 -15 3 -11 6 3 10 1 10 -6 0 -7 3 -10 6 -6 3 3
2 13 -4 22 -8 16 -9 16 -15 1z"/>
<path d="M4670 5939 c0 -5 5 -7 10 -4 6 3 10 8 10 11 0 2 -4 4 -10 4 -5 0 -10
-5 -10 -11z"/>
<path d="M4786 5937 c3 -10 9 -15 12 -12 3 3 0 11 -7 18 -10 9 -11 8 -5 -6z"/>
<path d="M4640 5931 c0 -6 4 -13 10 -16 6 -3 7 1 4 9 -7 18 -14 21 -14 7z"/>
<path d="M4710 5931 c0 -10 29 -36 34 -30 1 2 -6 12 -16 22 -10 9 -18 13 -18
8z"/>
<path d="M4855 5929 c-4 -6 -5 -12 -2 -15 2 -3 7 2 10 11 7 17 1 20 -8 4z"/>
<path d="M1785 5910 c-3 -6 1 -7 9 -4 18 7 21 14 7 14 -6 0 -13 -4 -16 -10z"/>
<path d="M4446 5903 c-6 -14 -5 -15 5 -6 7 7 10 15 7 18 -3 3 -9 -2 -12 -12z"/>
<path d="M4807 5899 c7 -7 15 -10 18 -7 3 3 -2 9 -12 12 -14 6 -15 5 -6 -5z"/>
<path d="M5117 5892 c4 -10 2 -13 -5 -8 -8 5 -10 2 -5 -10 5 -14 7 -14 18 5 6
12 13 20 16 19 2 -2 3 -1 1 1 -1 3 -9 6 -17 7 -9 1 -11 -4 -8 -14z"/>
<path d="M4930 5881 c0 -6 4 -13 10 -16 6 -3 7 1 4 9 -7 18 -14 21 -14 7z"/>
<path d="M5076 5865 c4 -8 8 -15 10 -15 2 0 4 7 4 15 0 8 -4 15 -10 15 -5 0
-7 -7 -4 -15z"/>
<path d="M5140 5870 c-8 -5 -12 -11 -10 -14 3 -2 14 2 24 10 22 15 10 19 -14
4z"/>
<path d="M4870 5860 c-9 -6 -10 -10 -3 -10 6 0 15 5 18 10 8 12 4 12 -15 0z"/>
<path d="M4911 5853 c7 -12 15 -20 18 -17 3 2 -3 12 -13 22 -17 16 -18 16 -5
-5z"/>
<path d="M5056 5856 c6 -15 4 -17 -6 -11 -9 6 -11 4 -5 -4 5 -9 10 -10 18 -2
8 8 7 14 -2 24 -10 10 -11 8 -5 -7z"/>
<path d="M4990 5840 c0 -5 5 -10 10 -10 6 0 10 5 10 10 0 6 -4 10 -10 10 -5 0
-10 -4 -10 -10z"/>
<path d="M4948 5823 c6 -2 18 -2 25 0 6 3 1 5 -13 5 -14 0 -19 -2 -12 -5z"/>
<path d="M4926 5802 c-3 -5 1 -9 9 -9 8 0 15 4 15 9 0 4 -4 8 -9 8 -6 0 -12
-4 -15 -8z"/>
<path d="M196 5762 c-3 -5 1 -9 9 -9 8 0 12 4 9 9 -3 4 -7 8 -9 8 -2 0 -6 -4
-9 -8z"/>
<path d="M11760 5725 c0 -2 7 -8 15 -15 12 -10 15 -10 15 2 0 8 -7 15 -15 15
-8 0 -15 -1 -15 -2z"/>
<path d="M3857 5643 c-11 -11 -8 -20 7 -20 8 0 12 6 9 14 -6 15 -7 15 -16 6z"/>
<path d="M1855 5440 c3 -5 8 -10 11 -10 2 0 4 5 4 10 0 6 -5 10 -11 10 -5 0
-7 -4 -4 -10z"/>
<path d="M457 5265 c3 -8 9 -12 14 -9 12 7 11 11 -5 17 -10 4 -13 1 -9 -8z"/>
<path d="M1951 5214 c0 -11 3 -14 6 -6 3 7 2 16 -1 19 -3 4 -6 -2 -5 -13z"/>
<path d="M520 5150 c6 -11 13 -20 16 -20 2 0 0 9 -6 20 -6 11 -13 20 -16 20
-2 0 0 -9 6 -20z"/>
<path d="M575 5080 c6 -29 11 -34 18 -16 3 8 0 20 -8 26 -12 10 -13 8 -10 -10z"/>
<path d="M578 5013 c7 -3 16 -2 19 1 4 3 -2 6 -13 5 -11 0 -14 -3 -6 -6z"/>
<path d="M12301 4948 c-1 -20 14 -24 25 -6 4 6 3 8 -4 4 -5 -3 -13 0 -15 6 -3
8 -6 6 -6 -4z"/>
<path d="M2082 4741 c-11 -7 -11 -9 0 -14 9 -3 15 1 15 9 0 8 -1 14 -1 14 -1
0 -7 -4 -14 -9z"/>
<path d="M3237 4725 c3 -8 9 -12 14 -9 12 7 11 11 -5 17 -10 4 -13 1 -9 -8z"/>
<path d="M12255 4720 c3 -5 8 -10 11 -10 2 0 4 5 4 10 0 6 -5 10 -11 10 -5 0
-7 -4 -4 -10z"/>
<path d="M456 4658 c3 -5 10 -6 15 -3 13 9 11 12 -6 12 -8 0 -12 -4 -9 -9z"/>
<path d="M3090 4580 c0 -5 5 -10 11 -10 5 0 7 5 4 10 -3 6 -8 10 -11 10 -2 0
-4 -4 -4 -10z"/>
<path d="M570 4498 c0 -4 4 -8 9 -8 6 0 12 4 15 8 3 5 -1 9 -9 9 -8 0 -15 -4
-15 -9z"/>
<path d="M598 4473 c7 -3 16 -2 19 1 4 3 -2 6 -13 5 -11 0 -14 -3 -6 -6z"/>
<path d="M699 4308 c-5 -18 -6 -38 -1 -34 7 8 12 36 6 36 -2 0 -4 -1 -5 -2z"/>
<path d="M2840 4300 c0 -5 5 -10 11 -10 5 0 7 5 4 10 -3 6 -8 10 -11 10 -2 0
-4 -4 -4 -10z"/>
<path d="M2350 4061 c0 -6 4 -13 10 -16 6 -3 7 1 4 9 -7 18 -14 21 -14 7z"/>
<path d="M12115 4061 c-3 -5 -2 -12 3 -15 5 -3 9 1 9 9 0 17 -3 19 -12 6z"/>
<path d="M2387 3986 c-3 -8 2 -20 11 -27 14 -11 15 -11 5 0 -6 7 -9 20 -6 27
3 8 3 14 0 14 -3 0 -7 -6 -10 -14z"/>
<path d="M12080 3946 c0 -2 7 -9 15 -16 13 -11 14 -10 9 4 -5 14 -24 23 -24
12z"/>
<path d="M12110 3880 c0 -5 5 -10 11 -10 5 0 7 5 4 10 -3 6 -8 10 -11 10 -2 0
-4 -4 -4 -10z"/>
<path d="M2467 3799 c7 -7 15 -10 18 -7 3 3 -2 9 -12 12 -14 6 -15 5 -6 -5z"/>
<path d="M2946 3782 c-3 -5 1 -9 9 -9 8 0 15 4 15 9 0 4 -4 8 -9 8 -6 0 -12
-4 -15 -8z"/>
<path d="M12135 3760 c3 -5 8 -10 11 -10 2 0 4 5 4 10 0 6 -5 10 -11 10 -5 0
-7 -4 -4 -10z"/>
<path d="M12167 3736 c-4 -10 -1 -13 8 -9 8 3 12 9 9 14 -7 12 -11 11 -17 -5z"/>
<path d="M2515 3720 c-3 -5 -1 -10 4 -10 6 0 11 5 11 10 0 6 -2 10 -4 10 -3 0
-8 -4 -11 -10z"/>
<path d="M2527 3689 c7 -7 15 -10 18 -7 3 3 -2 9 -12 12 -14 6 -15 5 -6 -5z"/>
<path d="M750 3600 c0 -5 5 -10 11 -10 5 0 7 5 4 10 -3 6 -8 10 -11 10 -2 0
-4 -4 -4 -10z"/>
<path d="M2795 3420 c-3 -5 -1 -10 4 -10 6 0 11 5 11 10 0 6 -2 10 -4 10 -3 0
-8 -4 -11 -10z"/>
<path d="M775 3240 c-3 -5 1 -10 10 -10 9 0 13 5 10 10 -3 6 -8 10 -10 10 -2
0 -7 -4 -10 -10z"/>
<path d="M770 3196 c0 -2 7 -7 16 -10 8 -3 12 -2 9 4 -6 10 -25 14 -25 6z"/>
<path d="M730 2786 c0 -2 7 -6 15 -10 8 -3 15 -1 15 4 0 6 -7 10 -15 10 -8 0
-15 -2 -15 -4z"/>
<path d="M735 2700 c-3 -5 -1 -10 4 -10 6 0 11 5 11 10 0 6 -2 10 -4 10 -3 0
-8 -4 -11 -10z"/>
<path d="M12500 2617 c0 -2 6 -10 14 -16 11 -9 16 -9 22 1 4 7 4 10 -1 6 -4
-4 -14 -3 -22 3 -7 6 -13 9 -13 6z"/>
<path d="M750 2586 c0 -2 7 -6 15 -10 8 -3 15 -1 15 4 0 6 -7 10 -15 10 -8 0
-15 -2 -15 -4z"/>
</g>
</svg>
